<?xml version="1.0" standalone="no"?>
<!DOCTYPE svg PUBLIC "-//W3C//DTD SVG 20010904//EN"
 "http://www.w3.org/TR/2001/REC-SVG-20010904/DTD/svg10.dtd">
<svg version="1.0" xmlns="http://www.w3.org/2000/svg"
 width="1707.000000pt" height="904.000000pt" viewBox="0 0 1707.000000 904.000000"
 preserveAspectRatio="xMidYMid meet">

<g transform="translate(0.000000,904.000000) scale(0.100000,-0.100000)"
fill="#000000" stroke="none">
<path d="M0 4520 l0 -4520 8535 0 8535 0 0 4520 0 4520 -8535 0 -8535 0 0
-4520z m1057 3718 c-1 -112 -2 -21 -2 202 0 223 1 314 2 203 2 -112 2 -294 0
-405z m292 390 c-7 -13 -14 -18 -16 -11 -3 7 1 22 8 35 7 13 14 18 16 11 3 -7
-1 -22 -8 -35z m-94 11 c4 -11 4 -23 0 -27 -7 -7 -25 17 -25 36 0 20 18 14 25
-9z m89 -70 c19 -15 26 -30 26 -54 0 -36 -36 -75 -70 -75 -34 0 -70 39 -70 75
0 36 36 75 70 75 10 0 29 -9 44 -21z m-158 -3 c10 -8 17 -16 14 -19 -8 -8 -50
11 -50 23 0 14 13 13 36 -4z m240 -1 c-21 -16 -32 -13 -21 4 3 6 14 11 23 11
15 -1 15 -2 -2 -15z m11377 9 c11 -11 -3 -24 -18 -18 -8 4 -12 10 -9 15 6 11
18 12 27 3z m169 -4 c21 -6 40 -15 43 -20 3 -5 -11 -24 -31 -43 -33 -30 -37
-40 -37 -81 0 -34 5 -52 22 -70 30 -32 20 -46 -32 -46 -85 0 -144 65 -134 147
7 63 56 110 127 122 3 1 22 -4 42 -9z m-10854 -98 c13 -41 28 -70 32 -65 4 4
18 39 30 76 19 58 25 68 43 65 17 -2 26 -17 42 -71 11 -38 25 -68 30 -68 5 0
20 31 33 70 19 57 28 71 44 71 12 0 18 -5 16 -12 -3 -7 -20 -57 -37 -110 -29
-87 -35 -98 -56 -98 -20 0 -26 9 -46 75 -12 42 -25 72 -29 68 -4 -4 -17 -38
-30 -75 -18 -58 -25 -68 -45 -68 -21 0 -27 11 -56 98 -17 53 -34 103 -37 110
-3 10 2 13 18 10 19 -2 28 -16 48 -76z m470 56 c3 -16 -5 -18 -57 -18 -58 0
-61 -1 -61 -25 0 -23 3 -25 50 -25 43 0 50 -3 50 -20 0 -17 -7 -20 -50 -20
-47 0 -50 -2 -50 -25 0 -24 3 -25 60 -25 53 0 60 -2 60 -20 0 -18 -7 -20 -80
-20 l-80 0 0 110 0 111 77 -3 c65 -3 78 -6 81 -20z m159 10 c10 -12 93 -196
93 -204 0 -2 -9 -4 -20 -4 -12 0 -25 10 -32 25 -10 22 -17 25 -65 25 -48 0
-54 -3 -63 -25 -6 -15 -17 -25 -30 -25 -11 0 -20 2 -20 4 0 8 83 192 93 204 5
6 15 12 22 12 7 0 17 -6 22 -12z m273 -8 c0 -16 -7 -20 -35 -20 l-35 0 0 -90
c0 -83 -1 -90 -20 -90 -19 0 -20 7 -20 90 l0 90 -35 0 c-28 0 -35 4 -35 20 0
19 7 20 90 20 83 0 90 -1 90 -20z m80 -25 l0 -45 55 0 55 0 0 45 c0 38 3 45
20 45 19 0 20 -7 20 -110 0 -103 -1 -110 -20 -110 -17 0 -20 7 -20 45 l0 45
-55 0 -55 0 0 -45 c0 -38 -3 -45 -20 -45 -19 0 -20 7 -20 110 0 103 1 110 20
110 17 0 20 -7 20 -45z m368 23 c3 -16 -5 -18 -57 -18 -58 0 -61 -1 -61 -25 0
-23 3 -25 50 -25 43 0 50 -3 50 -20 0 -17 -7 -20 -50 -20 -47 0 -50 -2 -50
-25 0 -24 3 -25 60 -25 53 0 60 -2 60 -20 0 -18 -7 -20 -80 -20 l-80 0 0 110
0 111 77 -3 c65 -3 78 -6 81 -20z m181 11 c53 -19 69 -81 30 -120 l-21 -21 21
-29 c26 -35 26 -39 2 -39 -11 0 -29 14 -41 30 -15 22 -30 30 -51 30 -26 0 -29
-3 -29 -30 0 -23 -4 -30 -20 -30 -19 0 -20 7 -20 110 l0 110 49 0 c26 0 62 -5
80 -11z m-2460 -85 c-13 -7 -28 -10 -33 -7 -5 3 2 12 15 19 13 7 28 10 33 7 5
-3 -2 -12 -15 -19z m256 17 c10 -17 -11 -21 -31 -6 -18 14 -18 14 3 15 12 0
24 -4 28 -9z m11607 -33 c-6 -6 -16 -7 -22 -3 -9 6 -9 9 1 16 17 10 34 0 21
-13z m-11782 -31 c0 -15 -29 -57 -30 -42 0 6 3 20 6 33 7 24 24 31 24 9z m94
-3 c11 -27 7 -37 -9 -24 -16 14 -20 40 -6 40 5 0 12 -7 15 -16z m11235 -1041
c17 -13 37 -23 45 -23 15 0 29 -29 24 -51 -5 -23 87 -17 113 6 21 19 21 19 35
0 14 -18 14 -18 15 3 1 12 3 27 4 32 1 6 3 21 4 35 1 23 5 25 46 25 25 0 45
-4 45 -9 0 -17 31 -41 52 -41 12 0 30 8 41 18 18 16 19 16 16 -4 -4 -23 26
-64 46 -64 23 0 66 -42 60 -58 -8 -21 14 -82 30 -82 7 0 16 7 19 16 4 11 13
14 30 10 18 -4 29 -1 39 14 9 13 28 22 53 24 21 2 40 10 42 17 2 8 20 47 39
87 l35 72 549 0 c597 -1 549 4 554 -50 3 -42 58 -58 70 -20 4 14 16 20 36 21
46 2 49 3 58 18 7 11 17 6 45 -22 20 -20 36 -44 36 -54 1 -28 46 -73 74 -73
34 0 74 -19 78 -37 2 -12 8 -11 28 5 14 10 46 22 72 26 45 7 49 6 60 -18 14
-33 36 -33 44 -1 3 13 12 29 20 35 18 16 53 3 65 -23 5 -12 13 -29 18 -37 5
-8 15 -34 21 -57 7 -23 19 -44 26 -47 8 -3 14 -14 14 -25 0 -29 15 -33 43 -11
38 30 80 26 111 -10 33 -40 80 -50 95 -21 7 12 19 21 28 21 22 0 11 -65 -17
-95 -11 -12 -20 -26 -20 -32 0 -6 -11 -24 -24 -40 -13 -15 -38 -64 -55 -108
-29 -71 -31 -84 -22 -117 13 -42 47 -60 66 -34 7 8 15 13 18 10 7 -7 87 27 87
37 0 4 -6 9 -12 12 -10 3 -10 9 1 29 7 15 10 31 7 37 -9 13 38 33 68 29 15 -2
26 6 38 30 22 44 23 45 46 33 16 -9 21 -7 25 11 4 16 11 19 28 15 22 -6 59 7
59 21 0 4 -18 18 -40 32 -22 13 -40 28 -40 32 0 5 16 16 35 25 36 17 41 28 25
53 -8 12 -13 11 -33 -8 -24 -23 -42 -28 -51 -13 -8 13 17 74 37 89 13 10 17
28 17 78 0 78 9 84 86 60 67 -21 91 -15 102 27 l8 32 15 -25 c11 -20 15 -107
17 -472 l3 -448 -33 7 c-20 4 -47 22 -71 48 -35 38 -42 41 -63 31 -13 -6 -24
-14 -24 -18 0 -5 -7 -8 -16 -8 -13 0 -15 10 -12 59 1 33 0 57 -4 55 -3 -2 -19
1 -34 6 -19 8 -30 8 -38 0 -13 -13 -46 -13 -46 0 0 15 -60 0 -97 -24 -43 -28
-38 -54 12 -72 35 -12 39 -11 56 9 10 12 19 27 19 32 0 6 4 16 9 24 7 11 17 7
50 -19 42 -34 55 -71 24 -68 -47 4 -53 -1 -53 -40 0 -21 6 -47 14 -57 12 -17
11 -23 -7 -46 -17 -23 -25 -27 -50 -22 -32 7 -77 47 -77 68 0 7 -12 20 -26 30
-22 14 -25 23 -22 56 3 30 0 38 -10 34 -8 -3 -26 3 -40 13 -33 23 -81 40 -107
37 -11 -1 -39 -11 -63 -24 -40 -20 -43 -24 -37 -52 4 -17 17 -46 28 -64 21
-32 24 -33 67 -28 25 3 53 14 64 25 18 19 18 19 34 -3 14 -20 14 -23 -2 -35
-10 -7 -19 -27 -21 -46 -11 -96 -41 -168 -71 -168 -8 0 -41 -13 -74 -30 -33
-16 -67 -30 -75 -30 -10 0 -13 -5 -9 -12 5 -8 2 -9 -12 -3 -10 4 -41 8 -68 8
-41 -1 -52 -5 -73 -29 -24 -28 -24 -28 -30 -5 -3 13 -11 20 -19 17 -22 -8 -17
57 7 103 18 35 20 52 15 126 -3 49 -1 87 5 90 5 4 7 10 4 15 -3 5 0 12 6 16 8
5 9 3 4 -6 -5 -8 -4 -11 3 -6 17 11 41 65 31 72 -5 3 -9 14 -9 24 0 10 -18 32
-39 49 -31 24 -45 30 -69 25 -19 -4 -41 0 -63 12 -44 23 -93 19 -125 -9 -14
-12 -48 -29 -77 -37 -49 -15 -52 -18 -53 -50 -1 -57 -12 -86 -39 -98 -32 -15
-62 -15 -70 -2 -4 6 -14 9 -23 6 -10 -2 -29 -7 -44 -10 -16 -4 -28 -13 -28
-21 0 -8 -4 -15 -9 -15 -5 0 -16 -6 -23 -13 -7 -8 -32 -17 -55 -20 -38 -6 -46
-4 -78 24 l-35 31 -45 -33 c-29 -23 -44 -42 -45 -57 0 -24 -31 -44 -38 -24 -2
7 -9 12 -15 12 -7 0 -26 14 -44 30 -39 36 -52 37 -87 5 -29 -27 -34 -45 -10
-45 23 0 13 -33 -11 -36 -110 -15 -110 -16 -106 -52 1 -7 -5 -15 -14 -18 -8
-3 -15 -12 -15 -20 0 -8 -4 -14 -8 -14 -4 0 -13 -13 -19 -30 -14 -37 -43 -41
-43 -5 0 16 -4 23 -14 19 -7 -3 -21 3 -31 12 -19 20 -31 9 -41 -38 -5 -23 -9
-26 -25 -17 -11 5 -17 14 -14 19 3 4 -3 7 -12 6 -10 -2 -33 8 -51 22 -37 28
-47 23 -58 -30 -4 -15 -13 -33 -21 -40 -15 -12 -93 -12 -103 0 -10 14 -77 6
-94 -11 -17 -17 -19 -16 -44 10 -20 21 -27 24 -30 13 -17 -53 -86 -106 -103
-78 -14 22 -23 -21 -10 -49 6 -14 9 -34 5 -45 -5 -16 -12 -19 -32 -14 -15 4
-44 7 -64 6 -20 0 -46 5 -56 11 -27 17 -52 5 -52 -25 0 -19 -6 -25 -31 -28
-20 -3 -38 1 -52 13 -16 12 -28 14 -44 8 -13 -5 -45 -4 -75 1 -36 7 -62 7 -85
0 -34 -12 -54 -6 -100 30 -18 14 -31 16 -65 9 -24 -4 -53 -5 -65 -2 -13 3 -23
0 -23 -5 0 -6 -13 -10 -30 -10 -16 1 -36 -5 -45 -12 -12 -10 -18 -10 -29 -1
-12 10 -28 9 -75 -5 -53 -14 -123 -15 -138 -1 -2 3 2 16 8 31 18 38 1 53 -40
36 -39 -16 -72 -7 -115 30 -26 23 -43 30 -75 30 -32 0 -44 5 -57 26 -13 19
-24 24 -47 22 -16 -2 -33 -10 -38 -18 -36 -71 -49 -106 -55 -149 -6 -50 -24
-62 -24 -17 0 13 -7 29 -15 36 -8 7 -15 23 -15 35 0 13 -10 30 -25 39 -50 33
-65 58 -65 108 0 42 -3 50 -25 60 -18 8 -32 8 -57 -3 -18 -8 -40 -14 -48 -14
-16 0 -40 -40 -40 -67 0 -11 -8 -18 -21 -18 -14 0 -25 12 -37 40 -16 38 -43
53 -57 30 -12 -20 -34 -9 -40 20 -4 16 -11 32 -16 35 -16 11 -10 30 13 40 34
15 44 88 17 119 -14 16 -27 22 -45 18 -17 -3 -24 0 -24 11 0 20 30 37 64 37
16 0 27 7 31 20 9 29 54 80 70 80 16 0 45 38 45 57 0 7 -11 13 -25 13 -35 0
-43 51 -20 133 9 34 18 76 19 92 1 27 -2 30 -29 30 -29 0 -30 -2 -27 -37 4
-37 3 -38 -32 -38 -20 0 -45 -5 -55 -12 -14 -9 -23 -8 -40 4 -19 13 -20 17 -6
28 19 16 19 37 0 74 -18 34 -19 56 -3 56 17 0 48 31 48 48 0 9 -6 23 -14 31
-19 21 1 92 24 88 10 -1 16 8 18 25 5 40 31 44 64 8 20 -23 34 -30 48 -25 15
5 21 0 26 -19 3 -14 3 -29 0 -34 -7 -12 20 -36 33 -28 12 8 71 -26 71 -41 0
-7 9 -17 20 -23 11 -6 20 -17 20 -25 0 -7 11 -22 25 -33 14 -11 25 -25 25 -31
0 -14 1 -14 51 9 24 11 54 20 67 20 12 0 22 4 22 8 0 4 13 12 28 18 28 11 54
51 67 106 6 22 2 30 -20 44 -22 14 -31 15 -46 6 -17 -11 -19 -9 -19 27 0 22
-5 43 -10 46 -16 10 8 35 34 35 11 0 26 4 31 8 19 14 56 72 45 72 -5 0 -10 7
-10 15 0 8 -6 15 -12 16 -7 1 -22 2 -32 3 -11 0 -21 6 -23 13 -5 14 19 22 76
27 23 2 52 12 64 22 31 27 83 55 90 48 8 -8 77 35 77 47 0 5 -8 13 -17 17 -22
8 -28 52 -11 64 7 5 142 7 300 6 279 -3 287 -4 317 -25z m-5199 -374 c60 -27
98 -64 126 -124 78 -164 -43 -355 -226 -355 -64 0 -141 32 -182 76 -89 96 -89
252 0 348 67 72 192 96 282 55z m2510 -159 c0 -5 -9 -10 -20 -10 -11 0 -20 -4
-20 -10 0 -5 9 -10 20 -10 11 0 20 -4 20 -10 0 -5 -9 -10 -20 -10 -17 0 -20
-7 -20 -45 0 -25 -4 -45 -10 -45 -5 0 -10 20 -10 44 0 26 -5 46 -12 48 -9 3
-8 9 5 22 9 10 17 22 17 27 0 5 11 9 25 9 14 0 25 -4 25 -10z m270 -65 c0 -43
-4 -75 -10 -75 -6 0 -10 32 -10 75 0 43 4 75 10 75 6 0 10 -32 10 -75z m200 0
c0 -43 -4 -75 -10 -75 -6 0 -10 32 -10 75 0 43 4 75 10 75 6 0 10 -32 10 -75z
m58 64 c-2 -6 -8 -10 -13 -10 -5 0 -11 4 -13 10 -2 6 4 11 13 11 9 0 15 -5 13
-11z m52 -36 l0 -47 28 27 c36 35 65 37 33 3 l-23 -25 22 -30 c24 -35 8 -43
-19 -9 -18 22 -41 18 -41 -8 0 -8 -4 -14 -10 -14 -6 0 -10 32 -10 75 0 43 4
75 10 75 6 0 10 -21 10 -47z m458 24 c19 -15 14 -34 -19 -72 l-31 -35 31 0
c17 0 31 -4 31 -10 0 -5 -22 -10 -50 -10 -27 0 -50 4 -50 8 0 4 16 23 35 42
19 19 35 43 35 53 0 17 -5 19 -35 14 -39 -6 -48 9 -12 22 23 9 43 5 65 -12z
m-7983 -2 c30 -6 91 -59 109 -94 69 -137 -37 -292 -190 -279 -102 9 -174 88
-174 192 0 89 54 159 137 182 45 11 57 11 118 -1z m4925 6 c-23 -6 -26 -13
-31 -71 l-6 -65 -1 67 c-2 65 -3 67 -29 71 -16 2 -1 4 32 5 39 0 51 -2 35 -7z
m1554 -3 c-4 -7 -13 -20 -21 -30 -13 -14 -12 -17 6 -23 15 -4 21 -15 21 -35 0
-37 -42 -54 -86 -35 -31 14 -29 16 25 18 43 2 52 23 16 37 -26 10 -27 11 -11
35 16 25 16 25 -14 25 -16 0 -30 5 -30 10 0 6 23 10 51 10 37 0 48 -3 43 -12z
m116 3 c0 -6 -14 -11 -32 -13 -34 -3 -52 -28 -21 -28 30 0 64 -30 61 -53 -4
-28 -42 -47 -76 -38 -44 12 -38 30 7 24 36 -5 41 -3 41 15 0 21 -18 32 -51 32
-14 0 -19 7 -19 28 0 16 3 32 7 35 10 11 83 8 83 -2z m84 -6 c12 -31 -17 -61
-48 -49 -21 8 -28 34 -15 50 15 19 55 18 63 -1z m1196 8 c0 -5 -7 -17 -15 -27
-13 -17 -13 -21 6 -34 43 -30 -3 -88 -59 -73 -44 12 -38 30 7 24 37 -5 41 -3
41 16 0 14 -6 21 -20 21 -24 0 -26 17 -3 42 15 17 14 18 -15 18 -17 0 -34 5
-37 10 -4 6 13 10 44 10 28 0 51 -3 51 -7z m197 -9 c8 -22 -10 -49 -32 -49
-10 0 -22 7 -28 16 -15 24 -1 49 28 49 15 0 28 -7 32 -16z m-9137 -32 c0 -33
-14 -54 -110 -172 -60 -74 -110 -138 -110 -141 0 -4 22 -9 49 -13 66 -9 139
-58 171 -116 20 -36 25 -58 25 -115 -1 -146 -91 -231 -266 -251 -99 -11 -260
28 -322 78 l-27 23 25 41 24 41 72 -36 c63 -31 84 -36 157 -40 105 -4 151 9
191 54 26 31 31 44 31 90 0 44 -5 59 -27 86 -37 44 -80 59 -168 59 l-75 0 0
43 c0 39 8 52 106 172 l106 130 -201 3 -201 2 0 50 0 50 275 0 275 0 0 -38z
m670 -12 l0 -50 -184 0 -184 0 -6 -32 c-3 -18 -8 -72 -12 -120 l-7 -88 101 0
c164 0 268 -44 313 -131 47 -93 30 -218 -39 -287 -48 -48 -97 -71 -179 -84
-108 -18 -277 18 -346 74 l-27 23 25 42 26 43 38 -24 c61 -39 125 -56 212 -56
92 0 134 14 172 59 21 26 27 43 27 82 0 66 -21 104 -73 131 -38 20 -59 23
-206 26 l-163 4 5 41 c3 23 14 122 23 220 l18 177 233 0 233 0 0 -50z m6166
30 c8 0 14 -4 14 -10 0 -5 -7 -10 -15 -10 -11 0 -15 -11 -15 -35 0 -27 5 -38
23 -45 22 -10 22 -10 -3 -7 -21 2 -25 8 -28 42 -2 22 -8 43 -14 46 -7 5 -6 12
3 22 8 8 16 11 17 6 2 -5 10 -9 18 -9z m-725 -38 c8 -21 5 -22 -36 -22 -25 0
-45 -4 -45 -9 0 -18 30 -33 56 -27 17 5 23 3 19 -4 -9 -14 -58 -13 -73 2 -19
19 -14 65 9 82 26 18 59 8 70 -22z m147 27 c38 19 62 -6 61 -64 -1 -44 -4 -40
-14 18 -5 34 -9 38 -33 35 -24 -3 -28 -8 -33 -48 -6 -41 -6 -42 -8 -10 -2 47
-13 62 -42 58 -20 -2 -25 -10 -30 -48 l-6 -45 -1 53 c-1 29 2 51 6 48 4 -2 14
-1 22 4 7 4 24 4 37 -1 14 -5 32 -5 41 0z m133 2 c45 24 94 -52 57 -89 -16
-16 -55 -15 -65 1 -5 8 -10 0 -14 -23 -4 -23 -7 -8 -7 45 0 44 2 74 5 68 3
-10 10 -10 24 -2z m187 -30 c3 -18 -1 -21 -37 -21 -23 0 -41 -4 -41 -9 0 -19
31 -33 57 -27 21 5 24 4 13 -4 -45 -30 -100 13 -81 63 16 42 83 41 89 -2z
m163 29 c14 -8 19 -21 19 -54 l0 -43 -37 1 c-34 1 -38 4 -38 26 0 21 5 26 33
28 43 4 37 26 -9 31 -29 3 -31 5 -14 11 27 11 24 11 46 0z m310 0 c13 7 19 7
19 0 0 -5 -7 -10 -15 -10 -14 0 -19 -14 -28 -70 -3 -14 -5 2 -5 35 0 33 2 54
5 48 3 -9 10 -10 24 -3z m130 -28 c8 -21 5 -22 -36 -22 -25 0 -45 -4 -45 -9 0
-18 30 -33 56 -27 17 5 23 3 19 -4 -9 -14 -58 -13 -73 2 -19 19 -14 65 9 82
26 18 59 8 70 -22z m910 28 c11 -6 19 -21 19 -35 0 -23 -4 -25 -41 -25 -26 0
-38 -4 -34 -11 4 -6 19 -9 33 -8 15 2 28 -1 30 -6 1 -6 -13 -11 -32 -13 -26
-2 -38 2 -50 20 -21 30 -20 44 4 68 22 22 42 25 71 10z m121 -2 c9 -7 18 -22
20 -33 3 -17 -4 -21 -42 -25 -28 -3 -40 -8 -32 -13 7 -5 23 -7 37 -5 13 2 25
-1 27 -7 4 -15 -61 -18 -78 -4 -20 17 -18 76 4 88 23 14 45 13 64 -1z m168 2
c17 -11 9 -13 -34 -10 -39 2 -30 -21 13 -32 26 -7 32 -13 29 -31 -2 -18 -10
-23 -45 -25 -31 -2 -43 1 -43 10 0 10 10 13 35 10 19 -2 35 -2 35 2 0 3 -16
12 -35 20 -19 8 -35 21 -35 28 0 33 47 49 80 28z m160 -45 c0 -42 -3 -55 -15
-55 -12 0 -15 13 -15 55 0 42 3 55 15 55 12 0 15 -13 15 -55z m221 45 c11 -6
19 -21 19 -35 0 -23 -4 -25 -41 -25 -26 0 -38 -4 -34 -11 4 -6 19 -9 33 -8 15
2 28 -1 30 -6 1 -6 -13 -11 -32 -13 -26 -2 -38 2 -50 20 -21 30 -20 44 4 68
22 22 42 25 71 10z m-2108 -11 c-19 -7 -23 -16 -23 -49 0 -22 -4 -40 -10 -40
-5 0 -10 22 -10 48 0 48 0 49 33 50 28 0 29 -1 10 -9z m249 -31 c3 -38 6 -43
28 -43 22 0 25 5 28 43 4 58 22 53 22 -5 l0 -48 -40 -3 c-44 -3 -60 15 -60 67
0 47 18 37 22 -11z m968 -8 c0 -5 -11 -10 -24 -10 -14 0 -28 5 -31 10 -4 6 7
10 24 10 17 0 31 -4 31 -10z m-4788 -174 c14 -20 -24 -116 -46 -116 -29 0 -46
13 -46 35 0 23 22 84 36 98 9 9 46 -2 56 -17z m-322 -37 c29 -56 24 -84 -15
-84 -24 0 -33 7 -47 35 -20 42 -23 76 -5 83 31 13 48 5 67 -34z m266 -194
c142 -88 139 -306 -6 -392 -46 -28 -63 -33 -120 -33 -57 0 -74 5 -120 33 -42
25 -61 44 -83 87 -25 48 -28 64 -25 121 5 91 42 152 118 192 48 25 64 28 121
25 52 -3 77 -10 115 -33z m298 9 c12 -31 5 -44 -35 -64 -56 -29 -84 -24 -84
15 0 24 7 33 35 47 44 22 76 22 84 2z m-766 -40 c31 -13 38 -27 26 -58 -8 -21
-50 -20 -94 2 -27 14 -34 23 -32 42 5 43 24 45 100 14z m2942 -125 c60 -27 98
-64 126 -124 78 -164 -43 -355 -226 -355 -64 0 -141 32 -182 76 -89 96 -89
252 0 348 67 72 192 96 282 55z m8480 -4 c0 -8 -4 -15 -9 -15 -13 0 -22 16
-14 24 11 11 23 6 23 -9z m-1455 -85 c33 -34 38 -75 16 -128 -9 -22 -22 -34
-40 -38 -14 -3 -46 -10 -71 -17 -25 -6 -49 -11 -55 -9 -5 1 -30 -19 -54 -43
-24 -25 -48 -45 -52 -45 -5 0 -16 -8 -26 -19 -20 -21 -122 -47 -147 -38 -23 9
-20 37 4 37 11 0 38 7 60 16 35 14 38 18 25 31 -29 28 -18 43 30 43 25 0 53 4
63 9 9 6 28 12 42 15 53 11 64 28 69 106 1 16 86 110 99 110 5 0 21 -14 37
-30z m-9222 -55 c42 -17 48 -25 41 -53 -8 -29 -27 -33 -79 -16 -52 18 -59 26
-51 60 8 29 36 32 89 9z m3897 -30 c6 -8 10 -35 8 -61 -2 -39 -8 -51 -26 -60
-34 -17 -62 -6 -78 32 -31 74 48 147 96 89z m138 -19 c15 -30 8 -78 -14 -97
-21 -17 -66 -14 -81 7 -16 23 -17 85 0 106 27 35 74 27 95 -16z m110 21 c19
-15 14 -34 -19 -72 l-31 -35 31 0 c17 0 31 -4 31 -10 0 -5 -22 -10 -50 -10
-27 0 -50 4 -50 8 0 4 16 23 35 42 19 19 35 43 35 53 0 17 -5 19 -35 14 -39
-6 -48 9 -12 22 23 9 43 5 65 -12z m-4853 -22 c0 -24 -7 -33 -35 -47 -60 -29
-90 -20 -90 28 0 18 69 54 100 51 21 -2 25 -7 25 -32z m3416 25 c43 -24 7 -90
-48 -90 -16 0 -23 -6 -23 -20 0 -11 -4 -20 -10 -20 -6 0 -10 30 -10 70 l0 70
36 0 c19 0 44 -5 55 -10z m1059 -60 c0 -40 -4 -70 -10 -70 -6 0 -10 27 -10 60
0 46 -3 60 -14 60 -8 0 -18 5 -21 10 -4 6 7 10 24 10 l31 0 0 -70z m-979 30
c25 14 25 -2 0 -17 -12 -8 -21 -27 -24 -50 -2 -25 -4 -18 -5 22 0 33 2 54 5
48 3 -9 10 -10 24 -3z m117 -6 c37 -26 28 -44 -23 -44 -25 0 -45 -4 -45 -9 0
-18 30 -33 56 -27 17 5 23 3 19 -4 -9 -15 -51 -12 -69 6 -23 22 -20 60 6 78
12 9 25 16 28 16 3 0 16 -7 28 -16z m102 6 c11 -7 7 -10 -17 -10 -43 0 -42
-16 2 -34 37 -16 46 -40 19 -50 -24 -9 -52 -7 -59 4 -4 6 5 7 23 4 45 -9 50
14 8 31 -39 17 -46 38 -18 54 21 13 24 13 42 1z m100 0 c11 -7 7 -10 -17 -10
-23 0 -33 -5 -33 -15 0 -8 8 -15 18 -15 10 0 27 -6 37 -14 16 -12 17 -16 6
-30 -14 -17 -66 -22 -75 -7 -3 5 8 8 25 7 42 -1 48 19 9 32 -46 17 -41 50 10
61 3 0 12 -4 20 -9z m211 0 c13 7 19 7 19 0 0 -5 -7 -10 -15 -10 -14 0 -19
-14 -28 -70 -3 -14 -5 2 -5 35 0 33 2 54 5 48 3 -9 10 -10 24 -3z m130 -28 c8
-21 5 -22 -36 -22 -25 0 -45 -4 -45 -9 0 -18 30 -33 56 -27 17 5 23 3 19 -4
-9 -14 -58 -13 -73 2 -19 19 -14 65 9 82 26 18 59 8 70 -22z m955 26 c3 -4 9
-27 11 -53 5 -36 3 -45 -10 -45 -11 0 -17 12 -19 43 -2 34 -7 42 -23 42 -16 0
-21 -8 -23 -42 -2 -29 -8 -43 -17 -43 -9 0 -15 14 -17 43 -2 34 -7 42 -23 42
-16 0 -21 -8 -23 -42 -2 -29 -8 -43 -18 -43 -10 0 -14 14 -14 54 l0 54 85 -2
c46 -1 87 -5 91 -8z m214 -8 c13 -20 13 -90 0 -90 -5 0 -10 10 -10 23 0 46
-12 68 -34 65 -17 -2 -22 -11 -24 -45 -4 -50 -22 -58 -22 -10 0 41 -12 60 -36
55 -14 -2 -20 -13 -22 -46 -5 -61 -22 -52 -22 12 l0 53 81 -1 c58 -1 83 -6 89
-16z m-1448 -32 c3 -38 6 -43 28 -43 22 0 25 5 28 43 4 58 22 53 22 -5 l0 -48
-40 -3 c-44 -3 -60 15 -60 67 0 47 18 37 22 -11z m5403 -19 c-10 -15 -25 -10
-19 6 4 8 10 12 15 9 5 -3 7 -10 4 -15z m-405 2 c0 -5 -6 -14 -14 -20 -16 -13
-32 2 -21 19 8 12 35 13 35 1z m680 -1 c0 -5 -4 -10 -10 -10 -5 0 -10 5 -10
10 0 6 5 10 10 10 6 0 10 -4 10 -10z m-9048 -120 c29 -60 20 -90 -28 -90 -15
0 -54 69 -54 98 0 48 58 42 82 -8z m-308 24 c21 -8 20 -50 -2 -94 -14 -27 -23
-34 -42 -32 -43 5 -45 24 -14 100 13 31 27 38 58 26z m-2524 -439 l0 -185 -25
0 c-15 0 -25 6 -25 14 0 11 -8 10 -37 -6 -63 -32 -134 -9 -173 55 -69 113 58
252 174 192 15 -8 30 -15 32 -15 2 0 4 29 4 65 0 63 1 65 25 65 l25 0 0 -185z
m-582 148 c-2 -14 -15 -19 -61 -21 l-57 -3 0 -154 0 -155 -25 0 -25 0 0 155 0
155 -60 0 c-53 0 -60 2 -60 20 0 19 7 20 146 20 133 0 145 -1 142 -17z m179
-74 c100 -38 121 -171 37 -236 -27 -20 -47 -27 -83 -27 -85 0 -141 54 -141
136 0 100 93 163 187 127z m648 -5 c44 -20 55 -55 55 -165 0 -88 0 -89 -25
-89 -14 0 -25 4 -25 9 0 5 -17 3 -38 -6 -83 -32 -166 25 -140 97 12 36 46 50
118 50 53 0 60 2 60 20 0 51 -71 76 -129 45 -24 -12 -31 -12 -40 -1 -14 16 3
33 46 46 44 13 82 11 118 -6z m132 4 c5 -7 27 -52 48 -100 21 -49 41 -88 45
-88 4 0 25 42 48 93 41 92 63 121 80 102 12 -12 -120 -310 -150 -342 -31 -33
-128 -31 -128 2 0 21 16 26 45 15 22 -8 30 -6 51 15 13 13 24 31 24 39 0 9
-25 71 -55 140 -30 68 -55 127 -55 130 0 11 38 6 47 -6z m4853 -89 c60 -27 98
-64 126 -124 78 -164 -43 -355 -226 -355 -139 0 -250 111 -250 250 0 62 27
129 68 174 67 72 192 96 282 55z m945 -159 c3 -5 1 -10 -4 -10 -6 0 -11 5 -11
10 0 6 2 10 4 10 3 0 8 -4 11 -10z m135 -62 l0 -73 -40 -3 c-32 -2 -42 2 -55
22 -31 46 10 95 63 75 20 -8 22 -5 22 21 0 17 2 30 5 30 3 0 5 -33 5 -72z
m690 51 c0 -5 -13 -9 -30 -9 -19 0 -33 -7 -40 -20 -10 -19 -9 -20 14 -14 36 9
66 -11 66 -46 0 -29 -26 -47 -60 -41 -62 12 -68 118 -7 140 24 9 57 3 57 -10z
m-1330 -19 c0 -29 2 -30 44 -30 43 0 45 1 49 33 2 17 4 -2 4 -43 0 -41 -2 -60
-4 -42 -4 31 -6 32 -49 32 -42 0 -44 -1 -44 -30 0 -16 -4 -30 -10 -30 -6 0
-10 30 -10 70 0 40 4 70 10 70 6 0 10 -13 10 -30z m1200 -40 c0 -40 -4 -70
-10 -70 -6 0 -10 27 -10 60 0 47 -3 60 -15 60 -8 0 -15 5 -15 10 0 6 11 10 25
10 24 0 25 -2 25 -70z m270 35 l5 -30 23 33 c45 63 41 31 -4 -38 -26 -38 -51
-70 -55 -70 -14 0 -11 9 12 41 l21 30 -25 -6 c-20 -5 -28 -2 -37 14 -17 34 -3
63 28 59 21 -2 28 -10 32 -33z m-704 5 c8 0 14 -4 14 -10 0 -5 -7 -10 -15 -10
-11 0 -15 -11 -15 -35 0 -27 5 -38 23 -45 22 -10 22 -10 -3 -7 -21 2 -25 8
-28 42 -2 22 -8 43 -14 46 -7 5 -6 12 3 22 8 8 16 11 17 6 2 -5 10 -9 18 -9z
m-455 -10 c13 8 25 7 39 0 14 -8 26 -8 40 0 37 20 60 -3 58 -58 l-1 -47 -6 45
c-5 38 -10 46 -30 48 -29 4 -40 -11 -42 -58 -2 -32 -2 -31 -8 10 -5 40 -9 45
-33 48 -28 3 -31 -1 -41 -68 -3 -14 -5 2 -5 35 0 33 2 54 5 48 3 -9 10 -10 24
-3z m186 -72 c-2 -18 -4 -6 -4 27 0 33 2 48 4 33 2 -15 2 -42 0 -60z m190 0
c-2 -18 -4 -6 -4 27 0 33 2 48 4 33 2 -15 2 -42 0 -60z m183 35 c12 27 24 47
26 44 2 -2 -9 -34 -25 -71 -30 -67 -53 -88 -73 -68 -8 8 -5 9 9 6 31 -8 36 22
13 73 -28 63 -24 79 5 18 l23 -50 22 48z m-708 -5 c3 -38 6 -43 28 -43 22 0
25 5 28 43 4 58 22 53 22 -5 l0 -48 -40 -3 c-44 -3 -60 15 -60 67 0 47 18 37
22 -11z m1388 8 c6 -8 10 -25 8 -38 -2 -18 -9 -23 -33 -23 -24 0 -31 5 -33 23
-4 25 13 52 33 52 7 0 18 -7 25 -14z m-7852 -328 c-6 -18 -28 -21 -28 -4 0 9
7 16 16 16 9 0 14 -5 12 -12z m-58 -8 c0 -5 -18 -10 -40 -10 l-40 0 0 -100 c0
-60 -4 -100 -10 -100 -6 0 -10 40 -10 100 l0 100 -40 0 c-22 0 -40 5 -40 10 0
6 37 10 90 10 53 0 90 -4 90 -10z m830 -100 c0 -67 -4 -110 -10 -110 -6 0 -10
40 -10 100 l0 100 -25 0 c-14 0 -25 5 -25 10 0 6 16 10 35 10 l35 0 0 -110z
m180 104 c0 -3 -23 -35 -51 -70 l-51 -64 46 0 c42 0 46 2 46 25 0 14 5 25 10
25 6 0 10 -11 10 -25 0 -20 5 -25 25 -25 14 0 25 -4 25 -10 0 -5 -11 -10 -25
-10 -21 0 -25 -5 -25 -30 0 -16 -4 -30 -10 -30 -5 0 -10 14 -10 30 l0 30 -61
0 c-35 0 -59 4 -57 10 6 17 112 150 120 150 5 0 8 -3 8 -6z m210 -104 c0 -67
-4 -110 -10 -110 -6 0 -10 40 -10 100 l0 100 -31 0 c-17 0 -28 4 -24 10 3 6
22 10 41 10 l34 0 0 -110z m190 104 c0 -3 -14 -23 -32 -45 -17 -21 -29 -40
-27 -42 2 -2 16 -8 32 -15 22 -9 27 -18 27 -46 0 -25 -7 -39 -22 -50 -28 -20
-88 -21 -114 -2 -24 18 -13 31 14 17 29 -16 77 -14 92 3 20 25 8 58 -25 69
-41 13 -41 12 -11 51 14 19 26 37 26 40 0 3 -22 6 -50 6 -27 0 -50 5 -50 10 0
6 30 10 70 10 39 0 70 -3 70 -6z m-1120 -58 c25 13 34 13 57 2 26 -12 28 -18
31 -86 2 -45 -1 -72 -8 -72 -6 0 -10 26 -10 65 0 53 -3 66 -19 75 -28 14 -38
13 -61 -10 -15 -15 -20 -33 -20 -75 0 -30 -4 -55 -10 -55 -6 0 -10 27 -10 60
0 52 -3 61 -25 76 -23 15 -27 15 -50 0 -22 -15 -25 -24 -25 -76 0 -33 -4 -60
-10 -60 -6 0 -10 34 -9 83 0 45 3 77 5 70 4 -9 13 -8 37 2 27 11 37 11 64 0
28 -12 37 -12 63 1z m278 -22 c39 -44 30 -54 -48 -54 -38 0 -70 -3 -70 -8 0
-4 7 -18 16 -30 16 -23 77 -32 89 -12 4 6 11 7 17 4 18 -11 -22 -34 -59 -34
-67 0 -105 74 -67 128 33 47 82 49 122 6z m-518 -54 c0 -47 -4 -80 -10 -80 -6
0 -10 33 -10 80 0 47 4 80 10 80 6 0 10 -33 10 -80z m600 65 c0 -8 -4 -15 -9
-15 -13 0 -22 16 -14 24 11 11 23 6 23 -9z m470 0 c0 -8 -7 -15 -15 -15 -8 0
-15 7 -15 15 0 8 7 15 15 15 8 0 15 -7 15 -15z m-470 -130 c0 -8 -4 -15 -9
-15 -13 0 -22 16 -14 24 11 11 23 6 23 -9z m470 0 c0 -8 -7 -15 -15 -15 -8 0
-15 7 -15 15 0 8 7 15 15 15 8 0 15 -7 15 -15z m4800 -46 c60 -27 98 -64 126
-124 78 -164 -43 -355 -226 -355 -139 0 -250 111 -250 250 0 62 27 129 68 174
67 72 192 96 282 55z m1890 -136 c0 -20 -64 -183 -71 -183 -13 0 -12 2 22 100
17 50 35 90 40 90 5 0 9 -3 9 -7z m-970 -85 l0 -73 -34 -2 c-40 -3 -66 17 -66
52 0 34 41 60 69 45 19 -10 21 -8 21 20 0 16 2 30 5 30 3 0 5 -33 5 -72z
m1580 48 c0 -19 4 -22 25 -18 37 7 55 -14 55 -64 0 -24 -4 -44 -10 -44 -5 0
-10 15 -10 33 0 41 -12 60 -36 55 -14 -2 -20 -13 -22 -46 -2 -28 -8 -42 -18
-42 -11 0 -14 16 -14 75 0 60 3 75 15 75 9 0 15 -9 15 -24z m-2060 -41 c7 -25
16 -48 21 -50 4 -3 16 19 25 50 10 30 21 55 25 55 5 0 16 -25 25 -55 10 -30
21 -55 24 -55 3 0 14 25 24 56 10 31 20 53 23 51 7 -8 -37 -137 -47 -137 -5 0
-17 25 -26 55 -10 30 -21 52 -25 48 -3 -5 -14 -29 -24 -55 -10 -27 -21 -48
-25 -48 -3 0 -14 26 -24 58 -10 31 -21 63 -24 71 -3 8 -1 12 5 8 6 -4 16 -27
23 -52z m855 45 c-3 -5 -19 -10 -36 -10 -40 0 -38 -25 4 -36 28 -9 32 -14 32
-44 0 -27 -5 -35 -25 -40 -27 -7 -70 4 -70 17 0 5 18 7 40 5 35 -4 40 -2 40
17 0 17 -8 22 -41 27 -29 5 -39 11 -35 21 4 8 6 23 6 34 0 16 7 19 46 19 27 0
43 -4 39 -10z m105 -60 c0 -40 -4 -70 -10 -70 -6 0 -10 27 -10 60 0 47 -3 60
-15 60 -8 0 -15 5 -15 10 0 6 11 10 25 10 24 0 25 -2 25 -70z m86 25 c-37 -44
-37 -45 -13 -45 17 0 27 7 32 23 l8 22 4 -22 c2 -13 11 -23 19 -23 8 0 14 -4
14 -10 0 -5 -7 -10 -15 -10 -8 0 -15 -7 -15 -15 0 -8 -4 -15 -10 -15 -5 0 -10
7 -10 15 0 11 -11 15 -40 15 -22 0 -40 3 -40 6 0 16 75 104 88 104 9 0 1 -17
-22 -45z m934 25 c0 -5 7 -10 15 -10 8 0 15 -4 15 -10 0 -5 -7 -10 -15 -10
-10 0 -15 -10 -15 -34 0 -26 5 -35 23 -41 19 -6 20 -8 4 -12 -33 -9 -47 5 -47
46 0 22 -5 41 -12 43 -9 3 -8 9 2 21 17 19 30 22 30 7z m680 0 c0 -5 7 -10 15
-10 8 0 15 -4 15 -10 0 -5 -7 -10 -15 -10 -10 0 -15 -10 -15 -34 0 -26 5 -35
23 -41 19 -6 20 -8 4 -12 -33 -9 -47 5 -47 46 0 22 -5 41 -12 43 -9 3 -8 9 2
21 17 19 30 22 30 7z m-2453 -92 c-2 -18 -4 -6 -4 27 0 33 2 48 4 33 2 -15 2
-42 0 -60z m135 58 c4 -6 7 -29 6 -51 0 -25 -2 -30 -5 -15 -10 67 -13 71 -41
68 -24 -3 -27 -8 -30 -45 -4 -60 -22 -54 -22 8 0 39 3 50 13 46 8 -3 20 -1 27
3 15 9 41 2 52 -14z m924 13 c8 -7 14 -7 19 1 8 14 48 13 63 -2 14 -14 16 -98
2 -98 -5 0 -10 18 -10 40 0 27 -5 43 -15 46 -24 10 -45 -15 -45 -52 0 -19 -4
-34 -10 -34 -5 0 -10 18 -10 40 0 27 -5 43 -15 46 -24 10 -45 -15 -45 -52 0
-19 -4 -34 -10 -34 -5 0 -10 24 -10 53 l0 54 37 1 c20 1 42 -3 49 -9z m252 -6
c2 -9 -5 -11 -29 -6 -25 5 -31 3 -27 -8 2 -8 14 -15 26 -17 32 -5 47 -28 32
-48 -15 -17 -87 -16 -82 1 1 5 16 8 32 7 38 -4 39 14 1 21 -35 7 -46 31 -24
52 18 18 64 16 71 -2z m150 0 c2 -9 -5 -11 -29 -6 -25 5 -31 3 -27 -8 2 -8 14
-15 26 -17 32 -5 47 -28 32 -48 -15 -17 -87 -16 -82 1 1 5 16 8 32 7 38 -4 39
14 1 21 -35 7 -46 31 -24 52 18 18 64 16 71 -2z m114 0 c22 -20 23 -56 2 -77
-23 -24 -70 -20 -88 6 -21 30 -20 44 4 68 24 24 57 26 82 3z m60 -25 c3 -38 6
-43 28 -43 22 0 25 5 28 43 5 61 22 52 22 -13 l0 -55 -44 0 c-49 0 -56 8 -56
71 0 53 18 50 22 -3z m420 1 l12 -42 18 42 c9 22 21 41 26 41 5 0 15 -19 22
-41 l14 -42 18 42 c25 59 42 51 18 -9 -11 -28 -20 -53 -20 -55 0 -3 -6 -5 -13
-5 -7 0 -19 17 -26 37 l-14 37 -14 -37 c-9 -20 -21 -37 -27 -37 -7 0 -20 21
-29 48 -20 54 -21 62 -7 62 5 0 15 -19 22 -41z m230 29 c9 -7 18 -22 20 -33 3
-17 -4 -21 -42 -25 -28 -3 -40 -8 -32 -13 7 -5 23 -7 37 -5 13 2 25 -1 27 -7
4 -15 -61 -18 -78 -4 -20 17 -18 76 4 88 23 14 45 13 64 -1z m116 -5 c2 -9 -5
-11 -29 -6 -25 5 -31 3 -27 -8 2 -8 14 -15 26 -17 32 -5 47 -28 32 -48 -15
-17 -87 -16 -82 1 1 5 16 8 32 7 38 -4 39 14 1 21 -35 7 -46 31 -24 52 18 18
64 16 71 -2z m-388 -43 c0 -5 -11 -10 -24 -10 -14 0 -28 5 -31 10 -4 6 7 10
24 10 17 0 31 -4 31 -10z m-1320 -40 c0 -5 -4 -10 -10 -10 -5 0 -10 5 -10 10
0 6 5 10 10 10 6 0 10 -4 10 -10z m-7160 -25 c0 -8 -4 -15 -9 -15 -13 0 -22
16 -14 24 11 11 23 6 23 -9z m1030 -31 c0 -36 3 -44 13 -36 24 20 79 18 101
-4 18 -18 23 -144 6 -144 -5 0 -10 26 -10 58 0 70 -9 85 -51 85 -43 0 -59 -24
-59 -90 0 -29 -4 -53 -10 -53 -6 0 -10 45 -10 115 0 70 4 115 10 115 6 0 10
-21 10 -46z m210 -29 c0 -41 4 -75 8 -75 4 0 26 18 47 40 21 22 46 40 54 40
11 0 5 -10 -16 -32 l-32 -32 35 -48 c44 -59 29 -64 -20 -6 -35 40 -36 41 -56
23 -11 -10 -20 -29 -20 -42 0 -12 -4 -23 -10 -23 -6 0 -10 45 -10 115 0 70 4
115 10 115 6 0 10 -32 10 -75z m-1329 44 l24 -21 -25 7 c-72 20 -89 18 -120
-13 -36 -37 -41 -87 -10 -120 32 -34 78 -40 133 -17 27 11 20 -11 -8 -23 -57
-26 -132 -4 -154 45 -26 57 0 132 53 153 38 15 83 11 107 -11z m739 12 c0 -6
-17 -11 -37 -13 l-38 -3 -3 -97 c-4 -130 -22 -128 -22 2 l0 100 -35 0 c-19 0
-35 5 -35 10 0 6 35 10 85 10 47 0 85 -4 85 -9z m-560 -31 c0 -15 7 -20 28
-21 l27 -2 -27 -4 c-27 -4 -28 -6 -28 -69 0 -62 1 -64 25 -64 14 0 25 -4 25
-10 0 -11 -30 -13 -54 -4 -12 5 -16 21 -16 70 0 47 -4 65 -16 72 -15 8 -15 10
0 15 9 4 16 13 16 22 0 8 5 15 10 15 6 0 10 -9 10 -20z m1740 0 c0 -15 7 -20
28 -21 l27 -2 -28 -4 c-27 -4 -28 -5 -25 -66 3 -59 4 -62 31 -65 32 -4 27 -22
-7 -22 -36 0 -46 19 -46 87 0 53 -3 63 -17 64 -17 1 -17 2 0 6 9 2 17 13 17
24 0 10 5 19 10 19 6 0 10 -9 10 -20z m-1047 -38 c13 -11 17 -31 17 -79 0 -35
-4 -63 -10 -63 -5 0 -10 4 -10 9 0 5 -12 5 -28 -1 -59 -22 -107 15 -82 62 9
16 21 20 60 20 54 0 64 14 33 45 -16 16 -38 16 -77 0 -14 -6 -18 -5 -14 6 10
30 77 31 111 1z m163 18 c8 0 14 -5 14 -10 0 -7 -13 -9 -32 -5 -22 4 -40 1
-53 -9 -26 -19 -13 -32 46 -49 34 -10 45 -18 47 -37 3 -14 -3 -29 -14 -37 -28
-20 -114 -15 -114 7 0 4 23 7 52 6 42 -1 53 2 56 16 3 13 -8 20 -43 29 -51 13
-72 38 -55 68 10 20 43 31 68 25 8 -2 20 -4 28 -4z m575 -19 c10 -9 20 -26 24
-38 6 -22 4 -23 -64 -23 -75 0 -85 -8 -54 -42 17 -19 78 -25 88 -8 4 6 11 7
17 4 18 -11 -22 -34 -59 -34 -72 0 -111 91 -60 137 39 36 75 38 108 4z m211
-4 c11 -18 10 -137 -2 -137 -5 0 -10 26 -10 58 0 70 -9 85 -51 85 -43 0 -59
-24 -59 -90 0 -29 -4 -53 -10 -53 -6 0 -10 33 -10 80 0 47 4 80 10 80 6 0 10
-5 10 -11 0 -8 4 -8 13 -1 28 23 91 17 109 -11z m-1732 -57 c0 -47 -4 -80 -10
-80 -6 0 -10 33 -10 80 0 47 4 80 10 80 6 0 10 -33 10 -80z m208 13 l30 -68
31 68 c34 74 62 94 31 22 -11 -25 -29 -66 -41 -92 -11 -27 -28 -56 -36 -65
-17 -20 -58 -24 -68 -8 -4 6 6 10 24 10 52 0 56 27 16 115 -38 84 -39 85 -26
85 4 0 22 -30 39 -67z m162 52 c0 -8 -4 -15 -9 -15 -13 0 -22 16 -14 24 11 11
23 6 23 -9z m0 -130 c0 -8 -4 -15 -9 -15 -13 0 -22 16 -14 24 11 11 23 6 23
-9z m-170 -1239 l0 -83 -52 -2 c-63 -1 -78 10 -78 60 0 44 24 64 71 57 26 -4
29 -2 29 24 0 18 5 28 15 28 12 0 15 -16 15 -84z m2370 0 l0 -83 -49 -2 c-58
-1 -81 16 -81 59 0 40 26 63 67 58 30 -4 33 -2 33 24 0 18 5 28 15 28 12 0 15
-16 15 -84z m2150 0 l0 -83 -52 -2 c-63 -1 -78 10 -78 60 0 44 24 64 71 57 26
-4 29 -2 29 24 0 18 5 28 15 28 12 0 15 -16 15 -84z m1970 0 l0 -83 -52 -2
c-63 -1 -78 10 -78 60 0 44 24 64 71 57 26 -4 29 -2 29 24 0 18 5 28 15 28 12
0 15 -16 15 -84z m550 -2 l0 -85 -52 3 c-45 3 -54 7 -68 31 -13 24 -13 30 0
55 12 21 24 28 53 30 32 3 37 7 37 28 0 15 6 24 15 24 12 0 15 -16 15 -86z
m1230 58 c0 -26 3 -28 34 -24 42 5 66 -24 66 -80 0 -55 -28 -52 -32 3 -6 81
-68 73 -68 -8 0 -18 -4 -33 -10 -33 -6 0 -10 35 -10 85 0 50 4 85 10 85 6 0
10 -13 10 -28z m610 -56 l0 -83 -52 -2 c-63 -1 -78 10 -78 60 0 44 24 64 71
57 26 -4 29 -2 29 24 0 18 5 28 15 28 12 0 15 -16 15 -84z m1620 69 c0 -8 -7
-15 -15 -15 -8 0 -15 7 -15 15 0 8 7 15 15 15 8 0 15 -7 15 -15z m150 -71 l0
-85 -52 3 c-45 3 -54 7 -68 31 -13 24 -13 30 0 55 12 21 24 28 53 30 32 3 37
7 37 28 0 15 6 24 15 24 12 0 15 -16 15 -86z m2440 0 l0 -85 -52 3 c-45 3 -54
7 -68 31 -13 24 -13 30 0 55 12 21 24 28 53 30 32 3 37 7 37 28 0 15 6 24 15
24 12 0 15 -16 15 -86z m-13360 66 c0 -5 -11 -10 -25 -10 -24 0 -25 -2 -25
-70 0 -56 -3 -70 -15 -70 -12 0 -15 14 -15 70 l0 70 -30 0 c-16 0 -30 5 -30
10 0 6 30 10 70 10 40 0 70 -4 70 -10z m2065 -40 c16 -27 32 -50 35 -50 3 0
17 23 32 50 42 76 58 67 58 -30 0 -64 -3 -80 -15 -80 -11 0 -15 13 -15 53 l-1
52 -25 -42 c-14 -24 -30 -43 -35 -43 -5 0 -20 17 -32 38 l-22 37 -3 -47 c-2
-34 -7 -48 -18 -48 -11 0 -14 17 -14 80 0 96 12 103 55 30z m2185 40 c0 -5
-11 -10 -25 -10 -24 0 -25 -2 -25 -70 0 -56 -3 -70 -15 -70 -12 0 -15 14 -15
70 l0 70 -30 0 c-16 0 -30 5 -30 10 0 6 30 10 70 10 40 0 70 -4 70 -10z m2044
-45 c9 -30 19 -55 21 -55 2 0 12 25 21 55 22 68 41 69 63 3 9 -26 19 -49 22
-52 3 -3 13 19 23 49 11 36 22 55 33 55 8 0 13 -6 11 -12 -3 -7 -15 -43 -27
-80 -29 -88 -50 -91 -76 -10 l-18 57 -19 -58 c-26 -75 -45 -73 -75 8 -25 70
-28 95 -10 95 7 0 21 -25 31 -55z m2206 45 c0 -5 -11 -10 -25 -10 -24 0 -25
-2 -25 -70 0 -56 -3 -70 -15 -70 -12 0 -15 14 -15 70 l0 70 -30 0 c-16 0 -30
5 -30 10 0 6 30 10 70 10 40 0 70 -4 70 -10z m2130 0 c0 -5 -20 -10 -45 -10
-43 0 -45 -1 -45 -30 0 -28 2 -30 40 -30 22 0 40 -4 40 -10 0 -5 -18 -10 -40
-10 -38 0 -40 -2 -40 -30 0 -20 -5 -30 -15 -30 -12 0 -15 16 -15 80 l0 80 60
0 c33 0 60 -4 60 -10z m2108 -8 c3 -10 -4 -12 -30 -7 -25 5 -38 2 -47 -9 -11
-13 -5 -18 36 -38 75 -36 69 -88 -11 -88 -45 0 -72 12 -62 28 4 7 15 7 35 -1
32 -12 65 -3 59 16 -3 6 -18 17 -34 22 -16 6 -35 14 -41 18 -17 11 -17 49 -1
65 16 16 90 11 96 -6z m202 -7 c0 -8 7 -15 15 -15 8 0 15 -4 15 -10 0 -5 -7
-10 -15 -10 -11 0 -15 -11 -15 -40 0 -33 3 -40 20 -40 11 0 20 -4 20 -10 0 -5
-13 -10 -29 -10 -32 0 -41 14 -41 65 0 18 -6 36 -12 39 -10 5 -10 7 0 12 6 3
12 12 12 20 0 8 7 14 15 14 8 0 15 -7 15 -15z m-12838 -32 c41 -37 10 -103
-48 -103 -34 0 -64 28 -64 60 0 9 7 26 16 38 18 27 69 30 96 5z m286 5 c7 -7
12 -34 12 -61 l0 -48 -52 3 c-47 3 -53 6 -56 27 -4 28 12 41 51 41 38 0 30 25
-9 26 -46 2 -50 4 -34 14 21 14 74 12 88 -2z m71 -30 l19 -43 18 43 c9 23 23
42 31 42 19 0 17 -6 -25 -90 -31 -62 -41 -75 -61 -75 -13 0 -26 6 -28 13 -3 7
4 12 16 12 29 0 36 22 17 59 -31 60 -37 81 -21 81 8 0 23 -19 34 -42z m1863
25 c41 -37 10 -103 -48 -103 -34 0 -64 28 -64 60 0 9 7 26 16 38 18 27 69 30
96 5z m152 -5 c21 -29 22 -98 2 -98 -10 0 -16 13 -18 41 -6 81 -68 73 -68 -8
0 -18 -4 -33 -10 -33 -6 0 -10 26 -10 58 l0 59 44 1 c36 2 48 -2 60 -20z m284
10 c7 -7 12 -33 12 -59 l0 -47 -46 2 c-32 1 -50 6 -57 18 -16 25 8 48 50 48
31 0 34 2 23 15 -9 11 -22 14 -42 10 -26 -6 -37 3 -21 18 11 12 68 8 81 -5z
m76 -30 l18 -43 19 43 c11 23 26 42 34 42 11 0 6 -20 -21 -77 -41 -90 -52
-101 -88 -87 -20 8 -11 24 14 24 26 0 30 20 10 60 -28 57 -33 80 -17 80 8 0
22 -19 31 -42z m1458 -5 c3 -44 5 -48 28 -48 23 0 25 4 28 48 2 33 7 47 18 47
11 0 14 -14 14 -60 l0 -60 -50 0 c-57 0 -70 14 -70 79 0 29 4 41 14 41 11 0
16 -14 18 -47z m220 30 c10 -9 18 -24 18 -35 0 -15 -8 -18 -46 -18 -32 0 -44
-4 -41 -12 2 -8 19 -12 41 -11 26 2 36 -1 33 -10 -5 -16 -75 -21 -93 -6 -20
17 -18 86 4 98 26 16 63 13 84 -6z m118 3 c-3 -6 -14 -10 -25 -10 -30 -1 -29
-20 2 -28 33 -9 44 -27 32 -51 -8 -14 -20 -17 -51 -15 -23 2 -43 9 -46 16 -3
10 4 12 31 7 45 -9 59 11 16 23 -69 17 -60 76 10 70 20 -2 34 -7 31 -12z m278
2 c7 -7 12 -34 12 -61 l0 -48 -52 3 c-47 3 -53 6 -56 27 -4 28 12 41 51 41 38
0 30 25 -9 26 -46 2 -50 4 -34 14 21 14 74 12 88 -2z m71 -30 l19 -43 18 43
c9 23 23 42 31 42 19 0 17 -6 -25 -90 -31 -62 -41 -75 -61 -75 -13 0 -26 6
-28 13 -3 7 4 12 16 12 29 0 36 22 17 59 -31 60 -37 81 -21 81 8 0 23 -19 34
-42z m1613 25 c10 -9 18 -24 18 -35 0 -15 -8 -18 -46 -18 -32 0 -44 -4 -41
-12 2 -8 20 -13 41 -12 48 2 42 -20 -6 -24 -43 -4 -68 18 -68 58 0 54 61 80
102 43z m305 5 c19 -16 18 -108 -2 -108 -11 0 -15 12 -15 45 0 32 -5 47 -15
51 -25 10 -45 -16 -45 -57 0 -28 -4 -39 -15 -39 -12 0 -15 13 -15 59 l0 58 47
1 c26 1 53 -4 60 -10z m147 -10 c27 -39 20 -48 -35 -48 -46 0 -50 -2 -38 -16
8 -10 22 -14 41 -10 30 6 48 -8 22 -18 -34 -13 -73 -6 -88 16 -32 46 -6 98 49
98 24 0 39 -7 49 -22z m118 7 c-1 -5 -16 -8 -33 -6 -42 4 -34 -20 10 -31 28
-8 32 -13 29 -36 -3 -25 -7 -27 -47 -27 -26 0 -46 5 -48 12 -3 9 6 10 33 6 28
-5 36 -3 32 8 -2 7 -15 16 -28 19 -61 14 -45 73 19 68 20 -2 35 -7 33 -13z
m276 3 c7 -7 12 -34 12 -61 l0 -48 -52 3 c-47 3 -53 6 -56 27 -4 28 12 41 51
41 38 0 30 25 -9 26 -46 2 -50 4 -34 14 21 14 74 12 88 -2z m71 -30 l19 -43
18 43 c9 23 23 42 31 42 19 0 17 -6 -25 -90 -31 -62 -41 -75 -61 -75 -13 0
-26 6 -28 13 -3 7 4 12 16 12 29 0 36 22 17 59 -31 60 -37 81 -21 81 8 0 23
-19 34 -42z m1191 -3 c0 -32 5 -47 15 -51 25 -10 45 16 45 57 0 28 4 39 15 39
12 0 15 -13 15 -59 l0 -58 -47 -1 c-26 -1 -53 4 -60 10 -19 16 -18 108 2 108
11 0 15 -12 15 -45z m190 36 c0 -3 -9 -12 -20 -19 -15 -9 -20 -23 -20 -52 0
-29 -4 -40 -15 -40 -12 0 -15 13 -15 59 l0 59 35 0 c19 0 35 -3 35 -7z m100
-5 c-3 -6 -14 -10 -25 -10 -30 -1 -29 -20 2 -28 33 -9 44 -27 32 -51 -8 -14
-20 -17 -51 -15 -23 2 -43 9 -46 16 -3 10 4 12 31 7 45 -9 59 11 16 23 -69 17
-60 76 10 70 20 -2 34 -7 31 -12z m278 2 c7 -7 12 -34 12 -61 l0 -48 -52 3
c-47 3 -53 6 -56 27 -4 28 12 41 51 41 38 0 30 25 -9 26 -46 2 -50 4 -34 14
21 14 74 12 88 -2z m71 -30 l19 -43 18 43 c9 23 23 42 31 42 19 0 17 -6 -25
-90 -31 -62 -41 -75 -61 -75 -13 0 -26 6 -28 13 -3 7 4 12 16 12 29 0 36 22
17 59 -31 60 -37 81 -21 81 8 0 23 -19 34 -42z m1381 33 c0 -5 -9 -13 -20 -16
-16 -5 -20 -15 -20 -51 0 -32 -4 -44 -15 -44 -12 0 -15 13 -15 60 l0 60 35 0
c19 0 35 -4 35 -9z m50 -51 c0 -47 -3 -60 -15 -60 -12 0 -15 13 -15 60 0 47 3
60 15 60 12 0 15 -13 15 -60z m280 41 c5 -11 10 -38 10 -61 l0 -41 -52 3 c-51
3 -53 4 -53 33 0 28 3 30 38 33 45 4 46 26 1 28 -43 2 -46 3 -39 14 3 6 24 10
45 10 29 0 42 -5 50 -19z m65 -23 l17 -43 21 43 c22 44 54 61 38 20 -50 -127
-75 -157 -115 -142 -20 8 -11 24 14 24 30 0 31 14 5 74 -29 66 -29 66 -11 66
8 0 22 -19 31 -42z m1743 30 c7 -7 12 -33 12 -59 l0 -47 -46 2 c-32 1 -50 6
-57 18 -16 25 8 48 50 48 31 0 34 2 23 15 -9 11 -22 14 -42 10 -26 -6 -37 3
-21 18 11 12 68 8 81 -5z m172 -33 c0 -32 5 -47 15 -51 25 -10 45 16 45 57 0
28 4 39 15 39 12 0 15 -13 15 -60 l0 -60 -48 0 c-26 0 -53 5 -60 12 -18 18
-16 108 3 108 11 0 15 -12 15 -45z m190 36 c0 -3 -9 -12 -20 -19 -15 -9 -20
-23 -20 -52 0 -29 -4 -40 -15 -40 -12 0 -15 13 -15 59 l0 59 35 0 c19 0 35 -3
35 -7z m270 -10 c5 -11 10 -38 10 -61 l0 -41 -52 3 c-51 3 -53 4 -53 33 0 28
3 30 38 33 45 4 46 26 1 28 -43 2 -46 3 -39 14 3 6 24 10 45 10 29 0 42 -5 50
-19z m65 -23 l17 -43 21 43 c22 44 54 61 38 20 -50 -127 -75 -157 -115 -142
-20 8 -11 24 14 24 30 0 31 14 5 74 -29 66 -29 66 -11 66 8 0 22 -19 31 -42z
m-13128 -360 c-2 -24 -4 -7 -4 37 0 44 2 63 4 43 2 -21 2 -57 0 -80z m2140 0
c-2 -24 -4 -7 -4 37 0 44 2 63 4 43 2 -21 2 -57 0 -80z m2120 0 c-2 -24 -4 -7
-4 37 0 44 2 63 4 43 2 -21 2 -57 0 -80z m4140 0 c-2 -24 -4 -7 -4 37 0 44 2
63 4 43 2 -21 2 -57 0 -80z m4290 0 c-2 -24 -4 -7 -4 37 0 44 2 63 4 43 2 -21
2 -57 0 -80z m-13160 94 c22 -14 33 -59 22 -92 -23 -64 -99 -43 -99 28 0 54
40 87 77 64z m143 1 c0 -16 -55 -133 -62 -133 -5 0 1 18 12 40 11 23 25 52 30
65 9 24 8 25 -30 25 -28 0 -40 -5 -43 -17 -4 -14 -5 -12 -6 5 -1 20 3 22 49
22 28 0 50 -3 50 -7z m150 -44 c0 -78 -26 -107 -70 -79 -11 7 -7 9 15 7 30 -2
30 -2 33 55 3 55 2 57 -25 61 -23 3 -21 4 10 6 l37 1 0 -51z m1844 29 c21 -30
20 -71 -2 -98 -39 -48 -102 4 -87 72 11 49 63 64 89 26z m130 6 c11 -11 13
-21 7 -32 -6 -10 -5 -22 2 -34 9 -13 9 -23 1 -36 -23 -36 -94 -27 -94 13 0 13
4 27 10 30 6 4 5 13 -2 25 -25 39 41 69 76 34z m156 -42 c0 -32 -5 -63 -12
-70 -14 -14 -44 -16 -52 -4 -2 4 8 8 22 7 26 0 27 3 30 57 3 55 2 57 -25 61
-27 4 -26 4 5 6 l32 1 0 -58z m1827 50 c22 -14 33 -59 22 -92 -23 -64 -99 -43
-99 28 0 54 40 87 77 64z m137 -14 c36 -50 5 -120 -51 -117 l-28 2 27 4 c24 4
58 35 58 54 0 3 -19 5 -42 5 -38 -1 -43 2 -46 22 -7 50 53 72 82 30z m156 -36
c0 -32 -5 -63 -12 -70 -14 -14 -44 -16 -52 -4 -2 4 8 8 22 7 26 0 27 3 30 57
3 55 2 57 -25 61 -27 4 -26 4 5 6 l32 1 0 -58z m1788 -14 l-2 -73 -3 67 c-4
59 -6 67 -26 71 -18 4 -17 5 6 6 l27 1 -2 -72z m126 56 c9 -9 16 -32 16 -54 0
-42 -20 -70 -50 -70 -30 0 -50 28 -50 70 0 42 20 70 50 70 10 0 26 -7 34 -16z
m166 -35 c0 -78 -26 -107 -70 -79 -11 7 -7 9 15 7 30 -2 30 -2 33 55 3 55 2
57 -25 61 -23 3 -21 4 10 6 l37 1 0 -51z m187 -56 c-2 -21 -4 -4 -4 37 0 41 2
58 4 38 2 -21 2 -55 0 -75z m1641 35 l-2 -73 -3 67 c-3 53 -7 68 -21 71 -12 3
-11 5 6 6 21 1 22 -2 20 -71z m80 0 l-2 -73 -3 67 c-4 59 -6 67 -26 71 -18 4
-17 5 6 6 l27 1 -2 -72z m152 14 c0 -32 -5 -63 -12 -70 -14 -14 -44 -16 -52
-4 -2 4 8 8 22 7 26 0 27 3 30 57 3 55 2 57 -25 61 -27 4 -26 4 5 6 l32 1 0
-58z m1898 -14 l-2 -73 -3 67 c-4 59 -6 67 -26 71 -18 4 -17 5 6 6 l27 1 -2
-72z m110 60 c20 -20 14 -43 -24 -79 l-35 -34 43 -6 43 -6 -55 -1 -54 -2 43
44 c54 55 53 82 -3 80 -25 -1 -33 2 -25 7 20 12 53 11 67 -3z m162 -39 c0 -78
-26 -107 -70 -79 -11 7 -7 9 15 7 30 -2 30 -2 33 55 3 55 2 57 -25 61 -23 3
-21 4 10 6 l37 1 0 -51z m187 -56 c-2 -21 -4 -4 -4 37 0 41 2 58 4 38 2 -21 2
-55 0 -75z m1661 35 l-2 -73 -3 67 c-3 53 -7 68 -21 71 -12 3 -11 5 6 6 21 1
22 -2 20 -71z m113 44 c-19 -28 -19 -28 0 -40 21 -14 25 -42 7 -60 -15 -15
-58 -15 -78 -1 -11 7 -5 8 21 4 57 -10 79 34 27 54 -19 7 -19 7 2 33 l20 27
-37 4 c-35 3 -34 4 10 5 l48 2 -20 -28z m159 -30 c0 -32 -5 -63 -12 -70 -14
-14 -44 -16 -52 -4 -2 4 8 8 22 7 26 0 27 3 30 57 3 55 2 57 -25 61 -27 4 -26
4 5 6 l32 1 0 -58z m-12604 -70 c27 -4 41 14 47 58 3 28 4 26 5 -15 2 -49 2
-50 -30 -52 -44 -3 -58 12 -56 61 l1 41 6 -45 c5 -36 10 -46 27 -48z m2116 46
c2 -32 8 -44 22 -46 25 -5 38 10 46 55 l8 38 1 -50 c1 -50 1 -50 -32 -52 -17
-1 -38 1 -45 6 -17 10 -29 91 -14 91 6 0 12 -19 14 -42z m2120 0 c2 -32 8 -44
22 -46 25 -5 38 10 46 55 l8 38 1 -50 c1 -50 1 -50 -32 -52 -17 -1 -38 1 -45
6 -17 10 -29 91 -14 91 6 0 12 -19 14 -42z m2094 -46 c27 -4 41 14 47 58 3 28
4 26 5 -15 2 -49 2 -50 -30 -52 -44 -3 -58 12 -56 61 l1 41 6 -45 c5 -36 10
-46 27 -48z m2046 46 c2 -32 8 -44 22 -46 25 -5 38 10 46 55 l8 38 1 -50 c1
-50 1 -50 -32 -52 -17 -1 -38 1 -45 6 -17 10 -29 91 -14 91 6 0 12 -19 14 -42z
m2184 -46 c27 -4 41 14 47 58 3 28 4 26 5 -15 2 -49 2 -50 -30 -52 -44 -3 -58
12 -56 61 l1 41 6 -45 c5 -36 10 -46 27 -48z m2106 46 c2 -32 8 -44 22 -46 25
-5 38 10 46 55 l8 38 1 -50 c1 -50 1 -50 -32 -52 -17 -1 -38 1 -45 6 -17 10
-29 91 -14 91 6 0 12 -19 14 -42z m-10691 -281 c-11 -29 -31 -36 -31 -11 0 8
5 25 11 36 16 29 32 8 20 -25z m-123 8 c15 -32 15 -45 2 -45 -12 0 -41 55 -33
64 12 11 20 6 31 -19z m-1797 -21 c7 -9 30 -23 51 -31 43 -17 57 -49 42 -92
-7 -20 -5 -35 10 -62 18 -32 19 -41 7 -78 -20 -70 -50 -81 -212 -81 -134 0
-137 0 -163 26 -37 37 -35 86 3 125 16 16 37 29 45 29 11 0 16 9 16 26 0 15
12 38 29 55 17 17 40 29 55 29 18 0 26 5 26 17 0 43 64 70 91 37z m10620 0 c7
-9 30 -23 51 -31 43 -17 57 -49 42 -92 -7 -20 -5 -35 10 -62 18 -32 19 -41 7
-78 -20 -70 -50 -81 -212 -81 -134 0 -137 0 -163 26 -37 37 -35 86 3 125 16
16 37 29 45 29 11 0 16 9 16 26 0 34 50 84 84 84 18 0 26 5 26 17 0 43 64 70
91 37z m2130 0 c7 -9 30 -23 51 -31 43 -17 57 -49 42 -92 -7 -20 -5 -35 10
-62 18 -32 19 -41 7 -78 -20 -70 -50 -81 -212 -81 -134 0 -137 0 -163 26 -37
37 -35 86 3 125 16 16 37 29 45 29 11 0 16 9 16 26 0 34 50 84 84 84 18 0 26
5 26 17 0 43 64 70 91 37z m-10721 -48 c0 -14 -21 -26 -46 -26 -21 0 -17 16 9
28 30 15 37 14 37 -2z m-112 -16 c12 -12 22 -25 22 -31 0 -6 8 -5 21 1 28 15
65 5 90 -24 12 -13 36 -27 53 -30 65 -12 100 -80 71 -136 -25 -49 -70 -62
-191 -58 -110 3 -143 17 -145 62 -1 18 -3 17 -12 -6 -10 -26 -37 -39 -37 -19
0 23 21 61 34 61 27 0 24 26 -4 38 -33 15 -55 61 -46 97 15 61 98 87 144 45z
m-194 -6 c14 -5 24 -34 12 -34 -16 0 -56 21 -56 30 0 11 20 13 44 4z m2372
-32 c-10 -10 -29 15 -21 28 6 9 10 8 17 -4 6 -10 7 -20 4 -24z m104 31 c0 -5
-4 -15 -10 -23 -11 -18 -25 -7 -17 15 6 15 27 21 27 8z m2016 -31 c-10 -10
-29 15 -21 28 6 9 10 8 17 -4 6 -10 7 -20 4 -24z m104 31 c0 -5 -4 -15 -10
-23 -11 -18 -25 -7 -17 15 6 15 27 21 27 8z m2026 -31 c-10 -10 -29 15 -21 28
6 9 10 8 17 -4 6 -10 7 -20 4 -24z m104 31 c0 -5 -4 -15 -10 -23 -11 -18 -25
-7 -17 15 6 15 27 21 27 8z m-4260 -83 c43 -43 11 -120 -50 -120 -38 0 -70 32
-70 70 0 38 32 70 70 70 17 0 39 -9 50 -20z m84 11 c3 -5 -1 -12 -10 -15 -20
-8 -29 -1 -19 13 8 13 22 14 29 2z m2036 -11 c43 -43 11 -120 -50 -120 -38 0
-70 32 -70 70 0 38 32 70 70 70 17 0 39 -9 50 -20z m84 11 c3 -5 -1 -12 -10
-15 -20 -8 -29 -1 -19 13 8 13 22 14 29 2z m2046 -11 c43 -43 11 -120 -50
-120 -38 0 -70 32 -70 70 0 38 32 70 70 70 17 0 39 -9 50 -20z m84 11 c3 -5
-1 -12 -10 -15 -20 -8 -29 -1 -19 13 8 13 22 14 29 2z m-4494 -11 c8 -5 11
-12 8 -16 -10 -9 -38 3 -38 16 0 12 10 13 30 0z m2120 0 c8 -5 11 -12 8 -16
-10 -9 -38 3 -38 16 0 12 10 13 30 0z m2130 0 c8 -5 11 -12 8 -16 -10 -9 -38
3 -38 16 0 12 10 13 30 0z m-6530 -33 c0 -11 -39 -37 -55 -37 -15 0 -1 29 18
38 30 15 37 14 37 -1z m2525 -58 c4 -6 5 -12 2 -15 -7 -7 -37 7 -37 17 0 13
27 11 35 -2z m2120 0 c4 -6 5 -12 2 -15 -7 -7 -37 7 -37 17 0 13 27 11 35 -2z
m2130 0 c4 -6 5 -12 2 -15 -7 -7 -37 7 -37 17 0 13 27 11 35 -2z m-4485 -8 c0
-14 -18 -23 -31 -15 -8 4 -7 9 2 15 18 11 29 11 29 0z m2120 0 c0 -14 -18 -23
-31 -15 -8 4 -7 9 2 15 18 11 29 11 29 0z m2130 0 c0 -14 -18 -23 -31 -15 -8
4 -7 9 2 15 18 11 29 11 29 0z m-4180 -65 c0 -15 -18 -31 -26 -23 -7 7 7 37
17 37 5 0 9 -6 9 -14z m95 4 c3 -5 3 -15 -1 -21 -6 -11 -23 6 -24 24 0 10 18
9 25 -3z m2025 -4 c0 -15 -18 -31 -26 -23 -7 7 7 37 17 37 5 0 9 -6 9 -14z
m95 4 c3 -5 3 -15 -1 -21 -6 -11 -23 6 -24 24 0 10 18 9 25 -3z m2035 -4 c0
-15 -18 -31 -26 -23 -7 7 7 37 17 37 5 0 9 -6 9 -14z m95 4 c3 -5 3 -15 -1
-21 -6 -11 -23 6 -24 24 0 10 18 9 25 -3z m-6405 -50 c0 -5 -4 -10 -10 -10 -5
0 -10 5 -10 10 0 6 5 10 10 10 6 0 10 -4 10 -10z m-80 -24 c0 -24 -16 -43 -26
-33 -8 7 7 57 17 57 5 0 9 -11 9 -24z m60 -71 c0 -8 -4 -15 -10 -15 -5 0 -10
7 -10 15 0 8 5 15 10 15 6 0 10 -7 10 -15z m-2300 -254 c0 -4 -9 -20 -20 -34
-20 -25 -20 -26 -1 -32 51 -16 24 -85 -33 -85 -45 0 -66 9 -60 25 4 10 12 10
34 2 21 -8 32 -8 44 2 19 16 10 41 -15 41 -23 0 -24 18 -3 48 15 21 14 22 -20
22 -20 0 -36 5 -36 10 0 6 25 10 55 10 30 0 55 -4 55 -9z m130 0 c0 -6 -17
-11 -37 -13 -27 -2 -39 -8 -41 -20 -2 -11 3 -18 12 -18 35 0 66 -23 66 -50 0
-35 -17 -50 -59 -50 -41 0 -67 13 -57 29 5 7 14 7 31 -1 31 -14 55 -4 55 22 0
17 -6 20 -40 20 -43 0 -45 3 -34 59 6 30 9 31 55 31 27 0 49 -4 49 -9z m88
-22 c6 -49 -58 -65 -73 -18 -9 27 13 51 44 47 20 -2 27 -9 29 -29z m1902 19
c0 -6 -8 -20 -17 -30 -16 -18 -15 -19 5 -34 25 -17 29 -56 8 -73 -18 -15 -98
-10 -103 6 -3 8 9 11 39 10 37 -2 43 1 43 18 0 13 -8 21 -22 23 -26 4 -30 24
-8 42 24 20 17 30 -20 30 -19 0 -35 5 -35 10 0 6 25 10 55 10 35 0 55 -4 55
-12z m140 -4 c0 -11 -6 -13 -20 -9 -22 7 -55 -8 -63 -29 -5 -12 0 -14 24 -9
35 7 69 -18 69 -52 0 -31 -19 -45 -62 -45 -32 0 -40 5 -54 31 -20 40 -11 93
19 114 29 20 87 20 87 -1z m90 1 c27 -32 -23 -82 -55 -55 -15 13 -20 51 -8 63
12 12 50 7 63 -8z m1900 6 c0 -4 -9 -20 -20 -34 -20 -25 -20 -26 -1 -32 51
-16 24 -85 -33 -85 -45 0 -66 9 -60 25 4 10 12 10 34 2 21 -8 32 -8 44 2 19
16 10 41 -15 41 -23 0 -24 18 -3 48 15 21 14 22 -20 22 -20 0 -36 5 -36 10 0
6 25 10 55 10 30 0 55 -4 55 -9z m140 4 c0 -21 -67 -155 -77 -155 -18 0 -16
14 6 58 10 20 22 47 25 60 7 19 4 22 -23 22 -21 0 -31 -5 -31 -15 0 -8 -7 -15
-15 -15 -9 0 -15 9 -15 25 0 24 2 25 65 25 36 0 65 -2 65 -5z m78 -7 c32 -32
-8 -80 -48 -58 -34 18 -19 70 20 70 9 0 21 -5 28 -12z m1902 0 c0 -6 -8 -20
-17 -30 -16 -18 -15 -19 5 -34 25 -17 29 -56 8 -73 -18 -15 -98 -10 -103 6 -3
8 9 11 39 10 37 -2 43 1 43 18 0 13 -8 21 -22 23 -26 4 -30 24 -8 42 24 20 17
30 -20 30 -19 0 -35 5 -35 10 0 6 25 10 55 10 35 0 55 -4 55 -12z m134 -4 c19
-18 21 -40 5 -50 -8 -4 -8 -9 0 -17 15 -15 14 -50 -1 -65 -7 -7 -31 -12 -55
-12 -48 0 -70 24 -57 63 4 12 7 32 5 45 -1 13 3 30 9 38 16 19 75 18 94 -2z
m106 1 c27 -32 -23 -82 -55 -55 -15 13 -20 51 -8 63 12 12 50 7 63 -8z m1890
6 c0 -4 -9 -20 -20 -34 -20 -25 -20 -26 -1 -32 51 -16 24 -85 -33 -85 -45 0
-66 9 -60 25 4 10 12 10 34 2 21 -8 32 -8 44 2 19 16 10 41 -15 41 -23 0 -24
18 -3 48 15 21 14 22 -20 22 -20 0 -36 5 -36 10 0 6 25 10 55 10 30 0 55 -4
55 -9z m124 -13 c23 -32 20 -94 -4 -118 -23 -23 -105 -29 -97 -7 2 7 15 11 31
9 28 -4 56 12 56 32 0 8 -12 11 -34 8 -28 -3 -37 1 -51 22 -16 24 -16 28 -1
51 22 33 78 35 100 3z m106 7 c27 -32 -23 -82 -55 -55 -15 13 -20 51 -8 63 12
12 50 7 63 -8z m1878 -16 c-55 -73 -53 -69 -24 -69 16 0 26 5 26 15 0 8 7 15
15 15 8 0 15 -7 15 -15 0 -8 7 -15 15 -15 8 0 15 9 15 21 0 92 108 109 135 21
10 -34 -13 -91 -40 -98 -37 -9 -69 -1 -80 21 -12 25 -45 21 -45 -6 0 -10 -7
-19 -15 -19 -8 0 -15 9 -15 20 0 17 -7 20 -45 20 -25 0 -45 4 -45 9 0 17 82
111 97 111 11 0 9 -7 -9 -31z m280 19 c32 -32 -8 -80 -48 -58 -34 18 -19 70
20 70 9 0 21 -5 28 -12z m1862 3 c0 -4 -9 -20 -20 -34 -20 -25 -20 -26 -1 -32
51 -16 24 -85 -33 -85 -45 0 -66 9 -60 25 4 10 12 10 34 2 21 -8 32 -8 44 2
19 16 10 41 -15 41 -23 0 -24 18 -3 48 15 21 14 22 -20 22 -20 0 -36 5 -36 10
0 6 25 10 55 10 30 0 55 -4 55 -9z m130 3 c0 -3 -9 -17 -20 -31 l-20 -26 20
-14 c23 -16 26 -55 6 -72 -21 -18 -101 -10 -101 9 0 8 7 13 15 11 40 -11 65
-6 65 14 0 13 -8 21 -22 23 -27 4 -28 11 -8 38 21 28 18 34 -15 34 -16 0 -30
5 -30 10 0 6 25 10 55 10 30 0 55 -3 55 -6z m88 -25 c6 -49 -58 -65 -73 -18
-9 27 13 51 44 47 20 -2 27 -9 29 -29z m-13138 -19 c0 -15 7 -20 25 -20 14 0
25 -4 25 -10 0 -5 -11 -10 -25 -10 -18 0 -25 -5 -25 -20 0 -11 -4 -20 -10 -20
-5 0 -10 9 -10 20 0 13 -7 20 -20 20 -11 0 -20 5 -20 10 0 6 9 10 20 10 13 0
20 7 20 20 0 11 5 20 10 20 6 0 10 -9 10 -20z m2130 0 c0 -13 7 -20 20 -20 11
0 20 -4 20 -10 0 -5 -9 -10 -20 -10 -13 0 -20 -7 -20 -20 0 -11 -7 -20 -15
-20 -8 0 -15 9 -15 20 0 13 -7 20 -20 20 -11 0 -20 5 -20 10 0 6 9 10 20 10
13 0 20 7 20 20 0 11 7 20 15 20 8 0 15 -9 15 -20z m2120 0 c0 -15 7 -20 25
-20 14 0 25 -4 25 -10 0 -5 -11 -10 -25 -10 -18 0 -25 -5 -25 -20 0 -11 -4
-20 -10 -20 -5 0 -10 9 -10 20 0 13 -7 20 -20 20 -11 0 -20 5 -20 10 0 6 9 10
20 10 13 0 20 7 20 20 0 11 5 20 10 20 6 0 10 -9 10 -20z m2130 0 c0 -13 7
-20 20 -20 11 0 20 -4 20 -10 0 -5 -9 -10 -20 -10 -13 0 -20 -7 -20 -20 0 -11
-7 -20 -15 -20 -8 0 -15 9 -15 20 0 13 -7 20 -20 20 -11 0 -20 5 -20 10 0 6 9
10 20 10 13 0 20 7 20 20 0 11 7 20 15 20 8 0 15 -9 15 -20z m2120 0 c0 -15 7
-20 25 -20 14 0 25 -4 25 -10 0 -5 -11 -10 -25 -10 -18 0 -25 -5 -25 -20 0
-11 -4 -20 -10 -20 -5 0 -10 9 -10 20 0 13 -7 20 -20 20 -11 0 -20 5 -20 10 0
6 9 10 20 10 13 0 20 7 20 20 0 11 5 20 10 20 6 0 10 -9 10 -20z m2130 0 c0
-13 7 -20 20 -20 11 0 20 -4 20 -10 0 -5 -9 -10 -20 -10 -13 0 -20 -7 -20 -20
0 -11 -7 -20 -15 -20 -8 0 -15 9 -15 20 0 13 -7 20 -20 20 -11 0 -20 5 -20 10
0 6 9 10 20 10 13 0 20 7 20 20 0 11 7 20 15 20 8 0 15 -9 15 -20z m2120 0 c0
-15 7 -20 25 -20 14 0 25 -4 25 -10 0 -5 -11 -10 -25 -10 -18 0 -25 -5 -25
-20 0 -11 -4 -20 -10 -20 -5 0 -10 9 -10 20 0 13 -7 20 -20 20 -11 0 -20 5
-20 10 0 6 9 10 20 10 13 0 20 7 20 20 0 11 5 20 10 20 6 0 10 -9 10 -20z
m-12620 -250 c13 -24 4 -44 -35 -80 l-27 -25 39 -6 38 -6 -47 -2 c-27 0 -48 2
-48 5 0 4 18 27 41 51 34 37 38 47 28 59 -9 11 -22 14 -41 10 -18 -3 -27 -2
-23 4 11 18 64 11 75 -10z m100 1 c-5 -11 -15 -23 -20 -26 -5 -3 -15 -15 -20
-26 -10 -17 -7 -19 20 -19 21 0 30 5 31 18 1 16 2 16 6 0 2 -10 12 -19 21 -19
15 -1 15 -2 0 -6 -10 -2 -19 -14 -19 -26 l-2 -22 -4 22 c-3 18 -12 23 -44 25
l-41 3 38 48 c39 50 52 60 34 28z m100 15 c0 -2 -9 -6 -20 -9 -11 -3 -18 -1
-14 4 5 9 34 13 34 5z m1918 -8 c20 -20 14 -43 -24 -79 l-35 -34 43 -6 43 -6
-55 -1 -54 -2 43 44 c54 55 53 82 -3 80 -25 -1 -33 2 -25 7 20 12 53 11 67 -3z
m122 5 c0 -3 -8 -15 -17 -25 -15 -17 -15 -20 5 -39 26 -24 27 -32 6 -53 -17
-18 -51 -21 -74 -6 -10 7 -4 8 20 4 44 -7 71 16 50 41 -7 8 -19 15 -26 15 -18
0 -18 14 1 30 23 19 18 28 -17 33 -29 3 -27 4 10 5 23 1 42 -1 42 -5z m70 3
c0 -2 -9 -6 -20 -9 -11 -3 -18 -1 -14 4 5 9 34 13 34 5z m1940 -16 c13 -24 4
-44 -35 -80 l-27 -25 39 -6 38 -6 -47 -2 c-27 0 -48 2 -48 5 0 4 18 27 41 51
34 37 38 47 28 59 -9 11 -22 14 -41 10 -18 -3 -27 -2 -23 4 11 18 64 11 75
-10z m98 13 c-24 -4 -58 -35 -58 -54 0 -3 19 -5 43 -5 40 1 42 0 45 -31 3 -28
-1 -33 -22 -39 -36 -9 -54 1 -67 32 -21 56 8 105 61 102 24 -1 24 -1 -2 -5z
m106 -2 c3 -4 -6 -6 -19 -3 -21 3 -25 0 -25 -18 0 -18 4 -21 25 -18 13 3 22 1
19 -3 -9 -15 -44 -10 -50 6 -9 23 3 45 25 45 11 0 22 -4 25 -9z m1914 -3 c20
-20 14 -43 -24 -79 l-35 -34 43 -6 43 -6 -55 -1 -54 -2 43 44 c54 55 53 82 -3
80 -25 -1 -33 2 -25 7 20 12 53 11 67 -3z m103 2 c-36 -9 -51 -24 -51 -54 0
-15 3 -16 14 -6 20 16 56 9 70 -12 25 -40 -43 -77 -78 -43 -21 21 -21 83 1
107 9 11 29 18 47 17 l31 -1 -34 -8z m99 6 c0 -2 -9 -6 -20 -9 -11 -3 -18 -1
-14 4 5 9 34 13 34 5z m1930 -16 c13 -24 4 -44 -35 -80 l-27 -25 39 -6 38 -6
-47 -2 c-27 0 -48 2 -48 5 0 4 18 27 41 51 34 37 38 47 28 59 -9 11 -22 14
-41 10 -18 -3 -27 -2 -23 4 11 18 64 11 75 -10z m98 13 c-24 -4 -58 -35 -58
-54 0 -3 19 -5 43 -5 40 1 42 0 45 -31 3 -28 -1 -33 -22 -39 -36 -9 -54 1 -67
32 -21 56 8 105 61 102 24 -1 24 -1 -2 -5z m106 -2 c3 -4 -6 -6 -19 -3 -21 3
-25 0 -25 -18 0 -18 4 -21 25 -18 13 3 22 1 19 -3 -3 -5 -14 -9 -25 -9 -22 0
-34 22 -25 45 6 16 41 21 50 6z m1914 -3 c20 -20 14 -43 -24 -79 l-35 -34 43
-6 43 -6 -55 -1 -54 -2 43 44 c54 55 53 82 -3 80 -25 -1 -33 2 -25 7 20 12 53
11 67 -3z m132 5 c0 -16 -55 -133 -62 -133 -5 0 1 18 12 40 11 23 25 52 30 65
9 24 8 25 -30 25 -28 0 -40 -5 -43 -17 -4 -14 -5 -12 -6 5 -1 20 3 22 49 22
28 0 50 -3 50 -7z m70 3 c0 -2 -9 -6 -20 -9 -11 -3 -18 -1 -14 4 5 9 34 13 34
5z m1930 -16 c13 -24 4 -44 -35 -80 l-27 -25 39 -6 38 -6 -47 -2 c-27 0 -48 2
-48 5 0 4 18 27 41 51 34 37 38 47 28 59 -9 11 -22 14 -41 10 -18 -3 -27 -2
-23 4 11 18 64 11 75 -10z m118 8 c15 -15 16 -48 0 -48 -6 0 -4 -8 6 -19 34
-37 -18 -76 -71 -52 -20 9 -24 16 -18 34 4 12 6 35 6 51 -1 16 4 33 11 38 19
12 52 10 66 -4z m96 3 c4 -5 -3 -7 -14 -4 -23 6 -26 13 -6 13 8 0 17 -4 20 -9z
m-13105 -63 c0 -35 -2 -39 -9 -21 -8 19 -3 63 6 63 2 0 4 -19 3 -42z m2121
-20 c-7 -19 -9 -15 -9 22 0 37 2 41 9 23 6 -14 6 -32 0 -45z m2129 20 c0 -35
-2 -39 -9 -21 -8 19 -3 63 6 63 2 0 4 -19 3 -42z m2121 -20 c-7 -19 -9 -15 -9
22 0 37 2 41 9 23 6 -14 6 -32 0 -45z m2129 20 c0 -35 -2 -39 -9 -21 -8 19 -3
63 6 63 2 0 4 -19 3 -42z m2121 -20 c-7 -19 -9 -15 -9 22 0 37 2 41 9 23 6
-14 6 -32 0 -45z m2129 20 c0 -35 -2 -39 -9 -21 -8 19 -3 63 6 63 2 0 4 -19 3
-42z m-11899 -300 l0 -73 -34 -2 c-40 -3 -66 17 -66 51 0 27 23 50 42 43 8 -4
7 -6 -4 -6 -41 -2 -29 -81 11 -81 39 0 57 59 24 80 -17 11 -17 11 0 6 13 -4
17 1 17 24 0 17 2 30 5 30 3 0 5 -33 5 -72z m1237 -40 c-2 -24 -4 -7 -4 37 0
44 2 63 4 43 2 -21 2 -57 0 -80z m63 102 c0 -5 -5 -10 -11 -10 -5 0 -7 5 -4
10 3 6 8 10 11 10 2 0 4 -4 4 -10z m230 -45 l35 0 1 -50 2 -50 -7 45 c-6 42
-8 45 -36 45 -28 0 -30 -3 -36 -45 -5 -35 -6 -27 -6 35 0 46 2 67 6 50 5 -26
10 -30 41 -30z m420 45 c0 -5 -5 -10 -11 -10 -5 0 -7 5 -4 10 3 6 8 10 11 10
2 0 4 -4 4 -10z m1527 -102 c-2 -24 -4 -7 -4 37 0 44 2 63 4 43 2 -21 2 -57 0
-80z m552 36 c14 14 29 26 34 26 6 0 2 -9 -8 -20 -18 -20 -18 -21 4 -50 26
-36 17 -40 -11 -5 -24 30 -40 28 -49 -6 -4 -13 -7 12 -6 56 0 72 1 74 6 27 l6
-54 24 26z m1568 -36 c-2 -24 -4 -7 -4 37 0 44 2 63 4 43 2 -21 2 -57 0 -80z
m563 38 c24 19 29 21 16 6 -19 -22 -19 -22 2 -45 12 -13 22 -27 22 -33 -1 -5
-11 4 -24 20 -25 31 -42 28 -56 -8 -6 -14 -8 5 -8 59 1 73 2 75 7 26 l6 -54
35 29z m1567 -38 c-2 -24 -4 -7 -4 37 0 44 2 63 4 43 2 -21 2 -57 0 -80z m552
36 c14 14 29 26 34 26 6 0 2 -9 -8 -20 -18 -20 -18 -21 4 -50 26 -36 17 -40
-11 -5 -24 30 -40 28 -49 -6 -4 -13 -7 12 -6 56 0 72 1 74 6 27 l6 -54 24 26z
m1484 21 l22 7 -22 -17 c-26 -19 -29 -34 -10 -60 10 -13 21 -16 40 -11 22 5
27 12 27 36 0 17 -7 34 -17 40 -17 10 -17 11 1 8 26 -4 37 -39 22 -69 -13 -27
-50 -37 -71 -19 -10 8 -14 8 -18 -2 -3 -7 -5 23 -5 67 1 44 3 65 5 47 4 -28 7
-32 26 -27z m355 -18 c30 23 34 24 18 5 -17 -20 -18 -24 -4 -39 27 -32 30 -49
4 -20 -28 30 -42 28 -56 -7 -6 -14 -8 5 -8 59 1 59 3 66 5 27 l4 -52 37 27z
m499 -39 c-2 -24 -4 -7 -4 37 0 44 2 63 4 43 2 -21 2 -57 0 -80z m393 40 l0
-73 -34 -2 c-40 -3 -66 17 -66 51 0 27 23 50 42 43 8 -4 7 -6 -4 -6 -41 -2
-29 -81 11 -81 39 0 57 59 24 80 -17 11 -17 11 0 6 13 -4 17 1 17 24 0 17 2
30 5 30 3 0 5 -33 5 -72z m1857 -40 c-2 -24 -4 -7 -4 37 0 44 2 63 4 43 2 -21
2 -57 0 -80z m393 40 l0 -73 -34 -2 c-40 -3 -66 17 -66 51 0 27 23 50 42 43 8
-4 7 -6 -4 -6 -41 -2 -29 -81 11 -81 39 0 57 59 24 80 -17 11 -17 11 0 6 13
-4 17 1 17 24 0 17 2 30 5 30 3 0 5 -33 5 -72z m-13797 -71 c7 -2 5 -3 -3 -3
-16 1 -32 88 -21 116 3 8 7 -13 9 -47 2 -37 8 -63 15 -66z m80 0 c7 -2 5 -3
-3 -3 -16 1 -32 88 -21 116 3 8 7 -13 9 -47 2 -37 8 -63 15 -66z m2087 57 c0
-44 3 -54 18 -55 11 0 12 -2 4 -6 -26 -10 -42 18 -42 74 0 34 4 52 10 48 6 -3
10 -31 10 -61z m11000 0 c0 -44 3 -54 18 -55 11 0 12 -2 4 -6 -26 -10 -42 18
-42 74 0 34 4 52 10 48 6 -3 10 -31 10 -61z m-13507 29 c-24 -9 -13 -30 18
-37 25 -5 30 -10 27 -28 -3 -26 -37 -35 -65 -19 -14 8 -8 9 21 4 33 -5 38 -4
34 13 -1 10 -14 21 -28 24 -31 7 -42 50 -13 49 10 0 13 -3 6 -6z m44 1 c-3 -3
-12 -4 -19 -1 -8 3 -5 6 6 6 11 1 17 -2 13 -5z m61 -5 c-38 -22 -11 -87 32
-76 11 3 18 1 14 -4 -8 -13 -48 -11 -62 3 -24 24 -11 88 17 88 14 -1 14 -2 -1
-11z m52 1 c0 -5 -7 -7 -15 -4 -8 4 -15 8 -15 10 0 2 7 4 15 4 8 0 15 -4 15
-10z m67 4 c-3 -3 -12 -4 -19 -1 -8 3 -5 6 6 6 11 1 17 -2 13 -5z m41 -46 l3
-45 -38 1 c-61 2 -57 55 5 56 22 0 31 24 12 33 -6 3 -5 4 2 3 8 -2 14 -21 16
-48z m230 45 c-9 -2 -19 -11 -22 -19 -4 -11 4 -14 34 -14 42 0 52 12 23 29
-10 6 -13 11 -7 11 14 0 34 -21 34 -37 0 -9 -15 -13 -45 -13 -25 0 -45 -4 -45
-9 0 -17 30 -33 55 -29 13 3 22 1 19 -3 -15 -25 -84 6 -84 38 0 25 20 53 38
52 15 -1 15 -2 0 -6z m130 0 c-17 -4 -22 -17 -31 -73 -3 -14 -5 -2 -6 25 -1
49 0 51 27 52 15 0 19 -1 10 -4z m122 -12 c15 -30 14 -31 -35 -31 -25 0 -45
-4 -45 -9 0 -18 30 -33 56 -27 17 5 23 3 19 -4 -9 -15 -51 -12 -69 6 -19 18
-21 55 -4 72 19 19 66 15 78 -7z m1427 -58 c-2 -16 -4 -3 -4 27 0 30 2 43 4
28 2 -16 2 -40 0 -55z m71 70 c-34 -9 -33 -72 1 -74 10 0 12 -2 3 -6 -18 -7
-42 16 -42 41 0 26 18 46 40 45 12 -1 12 -2 -2 -6z m62 -53 c0 -31 -5 -61 -12
-68 -15 -15 -48 -15 -68 -1 -12 8 -10 9 8 4 32 -9 62 3 62 25 0 14 -5 18 -17
14 -17 -5 -17 -5 0 6 9 6 17 22 17 35 0 13 -8 28 -17 34 -16 9 -15 10 5 8 20
-1 22 -6 22 -57z m347 47 c-9 -7 -18 -30 -20 -52 -3 -37 -4 -36 -5 10 -2 45 0
51 19 52 19 2 19 0 6 -10z m70 7 c-3 -3 -12 -4 -19 -1 -8 3 -5 6 6 6 11 1 17
-2 13 -5z m41 -46 l3 -45 -38 1 c-61 2 -57 55 5 56 22 0 31 24 12 33 -6 3 -5
4 2 3 8 -2 14 -21 16 -48z m59 -25 c-2 -16 -4 -3 -4 27 0 30 2 43 4 28 2 -16
2 -40 0 -55z m129 22 l2 -50 -7 45 c-6 42 -8 45 -36 45 -28 0 -30 -3 -36 -45
l-6 -45 -1 51 -2 51 43 -1 42 -1 1 -50z m1302 44 c-39 -22 -10 -87 33 -76 16
4 19 3 10 -6 -20 -20 -65 4 -69 36 -4 29 12 57 32 57 6 0 3 -5 -6 -11z m56 2
c4 -5 -3 -7 -14 -4 -23 6 -26 13 -6 13 8 0 17 -4 20 -9z m114 2 c-9 -2 -19
-11 -22 -19 -4 -11 4 -14 34 -14 42 0 52 12 23 29 -10 6 -13 11 -7 11 14 0 34
-21 34 -37 0 -9 -15 -13 -45 -13 -25 0 -45 -4 -45 -9 0 -17 30 -33 55 -29 13
3 22 1 19 -3 -15 -25 -84 6 -84 38 0 25 20 53 38 52 15 -1 15 -2 0 -6z m119 1
c-3 -3 -12 -4 -19 -1 -8 3 -5 6 6 6 11 1 17 -2 13 -5z m47 -10 c3 -9 6 -30 6
-47 0 -29 -3 -32 -34 -34 -68 -5 -71 52 -3 59 29 3 30 4 13 21 -14 14 -15 17
-3 17 8 0 18 -7 21 -16z m81 7 c-14 -6 -22 -21 -26 -52 l-6 -44 -1 50 c-2 49
-1 51 26 52 22 1 24 0 7 -6z m108 2 c-22 -8 -14 -22 22 -37 37 -16 42 -25 23
-44 -13 -13 -54 -16 -61 -4 -3 4 9 7 25 7 42 0 48 23 9 31 -17 4 -34 11 -37
16 -9 13 3 38 18 37 10 0 10 -2 1 -6z m230 -69 c3 -4 14 12 23 35 9 23 18 40
21 37 2 -2 -9 -34 -26 -70 -28 -62 -51 -81 -66 -56 -3 5 0 7 8 4 8 -3 19 1 26
9 9 11 7 25 -9 62 -24 57 -25 75 -1 23 10 -21 20 -41 24 -44z m1366 57 c-21
-17 -22 -21 -11 -46 11 -24 17 -27 43 -21 19 3 28 2 24 -4 -16 -26 -85 4 -85
37 0 24 20 53 36 53 12 0 10 -5 -7 -19z m56 9 c3 -6 -1 -7 -9 -4 -18 7 -21 14
-7 14 6 0 13 -4 16 -10z m113 -1 c-29 -16 -21 -29 17 -29 38 0 45 13 18 30
-17 10 -17 11 1 8 10 -2 22 -13 27 -25 8 -22 6 -23 -36 -23 -25 0 -45 -4 -45
-9 0 -18 31 -33 57 -27 26 5 27 5 5 -6 -34 -17 -72 4 -72 40 0 29 16 52 35 52
5 0 2 -5 -7 -11z m119 5 c-3 -3 -12 -4 -19 -1 -8 3 -5 6 6 6 11 1 17 -2 13 -5z
m51 -48 c2 -29 -1 -46 -6 -42 -6 3 -8 15 -5 26 5 17 0 20 -26 20 -24 0 -31 -4
-31 -19 0 -11 8 -21 18 -24 13 -3 12 -4 -3 -3 -14 1 -20 8 -20 26 0 21 5 26
33 28 36 4 41 15 15 32 -16 10 -16 10 2 8 16 -3 21 -12 23 -52z m80 47 c-17
-4 -22 -17 -31 -73 -3 -14 -5 -2 -6 25 -1 49 0 51 27 52 15 0 19 -1 10 -4z
m115 0 c-24 -9 -13 -30 18 -37 25 -5 30 -10 27 -28 -2 -17 -11 -24 -32 -26
-16 -2 -33 1 -38 6 -7 7 1 10 22 9 39 -2 51 18 18 28 -13 4 -28 12 -35 17 -16
13 -5 38 16 37 10 0 11 -2 4 -6z m44 1 c-3 -3 -12 -4 -19 -1 -8 3 -5 6 6 6 11
1 17 -2 13 -5z m170 -51 c6 -25 19 -30 26 -10 3 6 6 8 6 2 2 -21 -39 -75 -56
-74 -14 0 -13 2 5 9 27 11 28 25 2 87 -14 34 -15 42 -5 28 9 -11 18 -30 22
-42z m51 32 c-6 -14 -13 -23 -15 -21 -5 5 15 46 22 46 3 0 -1 -11 -7 -25z
m1330 14 c-39 -22 -10 -87 33 -76 16 4 19 3 10 -6 -20 -20 -65 4 -69 36 -4 29
12 57 32 57 6 0 3 -5 -6 -11z m56 2 c4 -5 -3 -7 -14 -4 -23 6 -26 13 -6 13 8
0 17 -4 20 -9z m114 2 c-9 -2 -19 -11 -22 -19 -4 -11 4 -14 34 -14 42 0 52 12
23 29 -10 6 -13 11 -7 11 14 0 34 -21 34 -37 0 -9 -15 -13 -45 -13 -25 0 -45
-4 -45 -9 0 -17 30 -33 55 -29 13 3 22 1 19 -3 -15 -25 -84 6 -84 38 0 25 20
53 38 52 15 -1 15 -2 0 -6z m119 1 c-3 -3 -12 -4 -19 -1 -8 3 -5 6 6 6 11 1
17 -2 13 -5z m47 -10 c3 -9 6 -30 6 -47 0 -29 -3 -32 -34 -34 -68 -5 -71 52
-3 59 29 3 30 4 13 21 -14 14 -15 17 -3 17 8 0 18 -7 21 -16z m81 7 c-14 -6
-22 -21 -26 -52 l-6 -44 -1 50 c-2 49 -1 51 26 52 22 1 24 0 7 -6z m108 2
c-22 -8 -14 -22 22 -37 37 -16 42 -25 23 -44 -13 -13 -54 -16 -61 -4 -3 4 9 7
25 7 42 0 48 23 9 31 -17 4 -34 11 -37 16 -9 13 3 38 18 37 10 0 10 -2 1 -6z
m230 -69 c3 -4 14 12 23 35 9 23 18 40 21 37 2 -2 -9 -34 -26 -70 -28 -62 -51
-81 -66 -56 -3 5 0 7 8 4 8 -3 19 1 26 9 9 11 7 25 -9 62 -24 57 -25 75 -1 23
10 -21 20 -41 24 -44z m1522 67 c-14 -6 -22 -21 -26 -52 l-6 -44 -1 50 c-2 49
-1 51 26 52 22 1 24 0 7 -6z m63 -2 c-10 -5 -18 -20 -18 -32 0 -49 53 -64 72
-21 11 23 10 29 -12 46 -22 18 -22 20 -5 17 11 -2 24 -16 29 -31 8 -22 6 -32
-9 -48 -33 -36 -85 -20 -85 26 0 34 11 54 29 54 14 -1 14 -2 -1 -11z m240 0
c-29 -16 -21 -29 17 -29 38 0 45 13 18 30 -17 10 -17 11 1 8 10 -2 22 -13 27
-25 8 -22 6 -23 -36 -23 -25 0 -45 -4 -45 -9 0 -18 31 -33 57 -27 26 5 27 5 5
-6 -34 -17 -72 4 -72 40 0 29 16 52 35 52 5 0 2 -5 -7 -11z m188 -44 l2 -50
-7 45 c-6 42 -8 45 -36 45 -28 0 -30 -3 -36 -45 l-6 -45 -1 51 -2 51 43 -1 42
-1 1 -50z m122 44 c-38 -22 -11 -87 32 -76 11 3 18 1 14 -4 -8 -13 -48 -11
-62 3 -24 24 -11 88 17 88 14 -1 14 -2 -1 -11z m52 1 c0 -5 -7 -7 -15 -4 -8 4
-15 8 -15 10 0 2 7 4 15 4 8 0 15 -4 15 -10z m118 3 c-40 -10 -30 -83 11 -83
39 0 57 60 24 79 -10 6 -13 11 -7 11 35 1 47 -72 15 -90 -27 -14 -47 -13 -65
6 -30 29 -14 86 24 83 11 -1 11 -2 -2 -6z m114 -35 c2 -32 8 -44 22 -46 25 -5
38 10 46 55 l8 38 1 -50 c1 -50 1 -50 -32 -52 -17 -1 -38 1 -45 6 -17 10 -29
91 -14 91 6 0 12 -19 14 -42z m271 35 c-24 -9 -13 -30 18 -37 25 -5 30 -10 27
-28 -2 -17 -11 -24 -32 -26 -16 -2 -33 1 -38 6 -7 7 1 10 22 9 39 -2 51 18 18
28 -13 4 -28 12 -35 17 -16 13 -5 38 16 37 10 0 11 -2 4 -6z m44 1 c-3 -3 -12
-4 -19 -1 -8 3 -5 6 6 6 11 1 17 -2 13 -5z m761 -5 c-21 -12 -24 -49 -6 -67
16 -16 43 -15 58 3 14 17 6 62 -13 68 -8 3 -7 4 2 3 21 -2 35 -30 27 -59 -13
-53 -96 -43 -96 11 0 29 16 52 35 52 5 0 2 -5 -7 -11z m157 -29 c13 25 24 41
24 35 0 -5 -10 -30 -23 -55 l-23 -44 -22 42 c-11 22 -21 47 -21 54 0 7 10 -7
21 -32 l21 -45 23 45z m73 29 c-29 -16 -21 -29 17 -29 38 0 46 13 18 29 -10 6
-13 11 -7 11 14 0 34 -21 34 -37 0 -8 -14 -13 -40 -13 -22 0 -40 -4 -40 -9 0
-16 30 -33 50 -28 11 3 18 1 14 -4 -8 -13 -48 -11 -62 3 -13 13 -17 70 -5 81
3 4 13 7 22 7 14 -1 13 -2 -1 -11z m129 -2 c-9 -7 -18 -30 -20 -52 -3 -37 -4
-36 -5 10 -2 45 0 51 19 52 19 2 19 0 6 -10z m62 -6 c-21 -17 -22 -21 -11 -46
11 -24 17 -27 43 -21 19 3 28 2 24 -4 -16 -26 -85 4 -85 37 0 24 20 53 36 53
12 0 10 -5 -7 -19z m56 9 c3 -6 -1 -7 -9 -4 -18 7 -21 14 -7 14 6 0 13 -4 16
-10z m72 4 c-3 -3 -12 -4 -19 -1 -8 3 -5 6 6 6 11 1 17 -2 13 -5z m41 -46 l3
-45 -38 1 c-61 2 -57 55 5 56 22 0 31 24 12 33 -6 3 -5 4 2 3 8 -2 14 -21 16
-48z m65 45 c-24 -9 -13 -30 18 -37 25 -5 30 -10 27 -28 -2 -17 -11 -24 -32
-26 -16 -2 -33 1 -38 6 -7 7 1 10 22 9 39 -2 51 18 18 28 -13 4 -28 12 -35 17
-16 13 -5 38 16 37 10 0 11 -2 4 -6z m44 1 c-3 -3 -12 -4 -19 -1 -8 3 -5 6 6
6 11 1 17 -2 13 -5z m191 -5 c-38 -22 -11 -87 32 -76 11 3 18 1 14 -4 -8 -13
-48 -11 -62 3 -24 24 -11 88 17 88 14 -1 14 -2 -1 -11z m52 1 c0 -5 -7 -7 -15
-4 -8 4 -15 8 -15 10 0 2 7 4 15 4 8 0 15 -4 15 -10z m118 3 c-40 -10 -30 -83
11 -83 39 0 57 60 24 79 -10 6 -13 11 -7 11 35 1 47 -72 15 -90 -27 -14 -47
-13 -65 6 -30 29 -14 86 24 83 11 -1 11 -2 -2 -6z m114 -35 c2 -32 8 -44 22
-46 25 -5 38 10 46 55 l8 38 1 -50 c1 -50 1 -50 -32 -52 -17 -1 -38 1 -45 6
-17 10 -29 91 -14 91 6 0 12 -19 14 -42z m271 35 c-24 -9 -13 -30 18 -37 25
-5 30 -10 27 -28 -2 -17 -11 -24 -32 -26 -16 -2 -33 1 -38 6 -7 7 1 10 22 9
39 -2 51 18 18 28 -13 4 -28 12 -35 17 -16 13 -5 38 16 37 10 0 11 -2 4 -6z
m44 1 c-3 -3 -12 -4 -19 -1 -8 3 -5 6 6 6 11 1 17 -2 13 -5z m-13267 -84 c0
-5 -4 -10 -10 -10 -5 0 -10 5 -10 10 0 6 5 10 10 10 6 0 10 -4 10 -10z"/>
<path d="M2706 8466 c-22 -53 -21 -56 19 -56 40 0 43 9 16 60 l-19 35 -16 -39z"/>
<path d="M3560 8470 l0 -41 41 3 c27 2 46 9 53 21 18 28 -4 52 -53 55 l-41 3
0 -41z"/>
<path d="M13595 7240 c-3 -5 -15 -10 -25 -10 -10 0 -27 -14 -37 -31 -15 -25
-23 -29 -45 -25 -30 6 -46 -17 -27 -40 9 -11 7 -14 -11 -14 -22 0 -23 -1 -5
-20 22 -24 48 -26 65 -5 10 12 16 13 26 4 11 -9 15 -7 20 5 4 9 19 23 35 31
41 22 54 50 39 86 -13 30 -24 36 -35 19z"/>
<path d="M15970 7141 c0 -5 7 -11 15 -15 9 -3 15 0 15 9 0 8 -7 15 -15 15 -8
0 -15 -4 -15 -9z"/>
<path d="M11872 6921 c4 -13 18 -16 19 -4 0 4 -5 9 -11 12 -7 2 -11 -2 -8 -8z"/>
<path d="M11399 6693 c-5 -16 -12 -34 -14 -40 -8 -23 41 -14 70 13 l29 26 -25
14 c-36 20 -48 17 -60 -13z"/>
<path d="M15990 6665 c0 -18 24 -30 39 -21 16 10 1 36 -20 36 -10 0 -19 -7
-19 -15z"/>
<path d="M15852 6538 c-15 -15 -16 -38 -1 -38 6 0 19 5 30 11 16 8 18 13 8 25
-14 17 -21 18 -37 2z"/>
<path d="M15645 6359 c-4 -6 -5 -13 -2 -16 7 -7 27 6 27 18 0 12 -17 12 -25
-2z"/>
<path d="M15285 6270 c3 -5 8 -10 11 -10 2 0 4 5 4 10 0 6 -5 10 -11 10 -5 0
-7 -4 -4 -10z"/>
<path d="M7267 6894 c-11 -11 -8 -54 3 -54 6 0 10 -26 10 -59 0 -41 5 -62 16
-72 10 -8 14 -23 12 -40 -3 -16 -1 -26 4 -23 14 9 9 51 -8 65 -13 11 -15 29
-13 98 4 79 -4 105 -24 85z"/>
<path d="M7353 6843 c9 -2 23 -2 30 0 6 3 -1 5 -18 5 -16 0 -22 -2 -12 -5z"/>
<path d="M2869 6761 c-68 -22 -99 -61 -99 -128 0 -129 158 -179 239 -77 25 32
28 101 7 143 -26 50 -93 78 -147 62z"/>
<path d="M9594 6809 c-10 -17 13 -36 27 -22 12 12 4 33 -11 33 -5 0 -12 -5
-16 -11z"/>
<path d="M10994 6809 c-10 -17 13 -36 27 -22 12 12 4 33 -11 33 -5 0 -12 -5
-16 -11z"/>
<path d="M7937 6774 c-15 -16 -5 -24 29 -24 24 0 34 4 32 13 -5 13 -50 22 -61
11z"/>
<path d="M8281 6766 c-16 -19 -11 -46 12 -60 25 -16 52 4 52 40 0 24 -5 30
-26 32 -14 2 -31 -4 -38 -12z"/>
<path d="M8407 6774 c-15 -16 -5 -24 29 -24 24 0 34 4 32 13 -5 13 -50 22 -61
11z"/>
<path d="M8594 6729 c-3 -6 -2 -15 4 -21 15 -15 46 -5 50 15 3 12 -3 17 -22
17 -14 0 -28 -5 -32 -11z"/>
<path d="M9007 6774 c-15 -16 -5 -24 29 -24 24 0 34 4 32 13 -5 13 -50 22 -61
11z"/>
<path d="M9937 6774 c-15 -15 -6 -24 24 -24 20 0 29 4 27 13 -5 14 -40 21 -51
11z"/>
<path d="M10057 6774 c-15 -15 -6 -24 24 -24 20 0 29 4 27 13 -5 14 -40 21
-51 11z"/>
<path d="M10607 6774 c-15 -15 -6 -24 24 -24 20 0 29 4 27 13 -5 14 -40 21
-51 11z"/>
<path d="M9024 5975 c-10 -42 3 -75 31 -75 28 0 41 33 31 75 -5 18 -13 25 -31
25 -18 0 -26 -7 -31 -25z"/>
<path d="M9154 5976 c-3 -14 -3 -38 0 -52 5 -20 12 -25 34 -22 25 3 27 6 27
48 0 42 -2 45 -27 48 -22 3 -29 -2 -34 -22z"/>
<path d="M7840 5975 c0 -33 2 -35 34 -35 27 0 36 5 42 22 8 25 -17 48 -53 48
-20 0 -23 -5 -23 -35z"/>
<path d="M8046 5955 c-4 -12 3 -15 36 -15 35 0 39 2 28 15 -7 8 -23 15 -35 15
-13 0 -25 -7 -29 -15z"/>
<path d="M8577 5964 c-15 -16 -5 -24 29 -24 24 0 34 4 32 13 -5 13 -50 22 -61
11z"/>
<path d="M1969 5401 c-38 -38 -40 -97 -5 -138 19 -22 32 -28 66 -28 34 0 47 6
66 28 53 62 11 167 -66 167 -22 0 -41 -9 -61 -29z"/>
<path d="M1675 5419 c-51 -25 -64 -112 -24 -155 66 -71 173 -9 155 90 -12 61
-75 92 -131 65z"/>
<path d="M2296 5304 c-33 -32 -6 -74 48 -74 38 0 76 34 76 68 0 20 -5 22 -54
22 -36 0 -60 -5 -70 -16z"/>
<path d="M8397 5153 c-12 -12 -7 -50 8 -63 17 -14 51 -5 59 16 13 35 -41 73
-67 47z"/>
<path d="M9107 5134 c-4 -4 -7 -16 -7 -26 0 -13 8 -18 31 -18 26 0 30 3 27 23
-3 22 -36 36 -51 21z"/>
<path d="M9263 5184 c-8 -20 13 -42 27 -28 12 12 3 44 -11 44 -5 0 -12 -7 -16
-16z"/>
<path d="M9352 5108 c2 -13 8 -23 13 -23 6 0 11 10 13 23 2 15 -2 22 -13 22
-11 0 -15 -7 -13 -22z"/>
<path d="M1950 4720 c-32 -32 -24 -40 40 -40 33 0 60 4 60 10 0 17 -39 50 -60
50 -11 0 -29 -9 -40 -20z"/>
<path d="M7243 4323 c32 -2 81 -2 110 0 29 2 3 3 -58 3 -60 0 -84 -1 -52 -3z"/>
<path d="M8241 4336 c-16 -19 -11 -46 12 -60 25 -16 52 4 52 40 0 24 -5 30
-26 32 -14 2 -31 -4 -38 -12z"/>
<path d="M9554 4336 c-11 -28 1 -51 27 -54 31 -4 44 19 29 49 -12 22 -48 25
-56 5z"/>
<path d="M10277 4344 c-15 -15 -6 -24 24 -24 20 0 29 4 27 13 -5 14 -40 21
-51 11z"/>
<path d="M2275 4096 c-28 -20 -12 -46 28 -46 37 0 57 15 57 42 0 14 -8 18 -33
18 -18 0 -42 -6 -52 -14z"/>
<path d="M3010 4160 c-32 -32 -24 -40 40 -40 33 0 60 4 60 8 0 16 -41 52 -60
52 -11 0 -29 -9 -40 -20z"/>
<path d="M1680 2800 c-14 -26 3 -60 30 -60 11 0 24 9 30 20 14 26 -3 60 -30
60 -11 0 -24 -9 -30 -20z"/>
<path d="M4062 2811 c-8 -4 -12 -21 -10 -37 2 -23 8 -29 27 -29 31 0 50 28 35
53 -13 20 -34 25 -52 13z"/>
<path d="M6200 2800 c-14 -26 3 -60 30 -60 27 0 44 34 30 60 -6 11 -19 20 -30
20 -11 0 -24 -9 -30 -20z"/>
<path d="M8170 2800 c-14 -26 3 -60 30 -60 11 0 24 9 30 20 14 26 -3 60 -30
60 -11 0 -24 -9 -30 -20z"/>
<path d="M8732 2808 c-28 -28 -1 -75 38 -63 14 4 20 15 20 35 0 36 -33 53 -58
28z"/>
<path d="M10560 2800 c-14 -26 3 -60 30 -60 11 0 24 9 30 20 14 26 -3 60 -30
60 -11 0 -24 -9 -30 -20z"/>
<path d="M12342 2808 c-28 -28 -1 -75 38 -63 14 4 20 15 20 35 0 36 -33 53
-58 28z"/>
<path d="M14782 2808 c-28 -28 -1 -75 38 -63 14 4 20 15 20 35 0 36 -33 53
-58 28z"/>
<path d="M1540 2805 c-24 -29 8 -75 44 -62 21 8 22 63 0 71 -23 9 -30 8 -44
-9z"/>
<path d="M1830 2754 c0 -10 7 -14 22 -12 32 5 35 28 4 28 -17 0 -26 -5 -26
-16z"/>
<path d="M3760 2805 c-24 -29 8 -75 44 -62 21 8 22 63 0 71 -23 9 -30 8 -44
-9z"/>
<path d="M4207 2763 c-14 -13 -6 -23 17 -23 13 0 26 7 30 15 4 11 -1 15 -18
15 -12 0 -26 -3 -29 -7z"/>
<path d="M5950 2805 c-11 -13 -8 -15 25 -15 25 0 35 4 33 13 -7 18 -43 20 -58
2z"/>
<path d="M6350 2754 c0 -10 7 -14 22 -12 32 5 35 28 4 28 -17 0 -26 -5 -26
-16z"/>
<path d="M8037 2814 c-15 -15 -6 -24 24 -24 20 0 29 4 27 13 -5 14 -40 21 -51
11z"/>
<path d="M8480 2805 c-11 -13 -7 -15 25 -15 32 0 36 2 25 15 -7 8 -18 15 -25
15 -7 0 -18 -7 -25 -15z"/>
<path d="M8880 2754 c0 -10 7 -14 22 -12 32 5 35 28 4 28 -17 0 -26 -5 -26
-16z"/>
<path d="M10710 2754 c0 -10 7 -14 22 -12 32 5 35 28 4 28 -17 0 -26 -5 -26
-16z"/>
<path d="M12490 2754 c0 -10 7 -14 22 -12 32 5 35 28 4 28 -17 0 -26 -5 -26
-16z"/>
<path d="M14307 2763 c-14 -13 -6 -23 17 -23 13 0 26 7 30 15 4 11 -1 15 -18
15 -12 0 -26 -3 -29 -7z"/>
<path d="M14930 2754 c0 -10 7 -14 22 -12 32 5 35 28 4 28 -17 0 -26 -5 -26
-16z"/>
<path d="M1410 2511 c-21 -41 -4 -101 28 -101 28 0 42 21 42 60 0 56 -47 84
-70 41z"/>
<path d="M3536 2508 c-9 -12 -16 -29 -16 -38 0 -22 28 -60 45 -60 23 0 45 30
45 60 0 30 -22 60 -45 60 -8 0 -21 -10 -29 -22z"/>
<path d="M3664 2515 c-9 -22 9 -37 37 -33 16 2 24 10 24 23 0 26 -52 35 -61
10z"/>
<path d="M3672 2461 c-22 -14 -10 -46 19 -49 34 -4 57 22 39 43 -14 17 -38 19
-58 6z"/>
<path d="M5660 2511 c-21 -41 -4 -101 28 -101 28 0 42 21 42 60 0 56 -47 84
-70 41z"/>
<path d="M5784 2516 c-11 -28 4 -48 33 -44 22 2 28 8 28 28 0 20 -6 26 -28 28
-18 2 -29 -2 -33 -12z"/>
<path d="M7861 2516 c-7 -8 -11 -31 -9 -52 6 -72 70 -72 76 0 4 41 -11 66 -38
66 -10 0 -23 -6 -29 -14z"/>
<path d="M1782 1423 c5 -26 38 -29 38 -4 0 15 -6 21 -21 21 -14 0 -19 -5 -17
-17z"/>
<path d="M3803 1354 c-3 -8 -1 -20 5 -26 16 -16 47 -5 50 20 3 18 -1 22 -23
22 -14 0 -28 -7 -32 -16z"/>
<path d="M3922 1423 c4 -21 33 -25 33 -3 0 8 -8 16 -18 18 -14 3 -18 -1 -15
-15z"/>
<path d="M6042 1423 c2 -10 10 -18 18 -18 8 0 16 8 18 18 2 12 -3 17 -18 17
-15 0 -20 -5 -18 -17z"/>
<path d="M8054 1425 c-4 -9 -2 -21 4 -27 15 -15 54 1 50 20 -4 23 -46 28 -54
7z"/>
<path d="M8044 1355 c-9 -22 9 -37 37 -33 16 2 24 10 24 23 0 26 -52 35 -61
10z"/>
<path d="M8182 1423 c2 -10 10 -18 18 -18 22 0 18 29 -3 33 -14 3 -18 -1 -15
-15z"/>
<path d="M10170 1425 c-10 -12 -10 -18 0 -30 7 -8 18 -15 25 -15 7 0 18 7 25
15 10 12 10 18 0 30 -7 8 -18 15 -25 15 -7 0 -18 -7 -25 -15z"/>
<path d="M10302 1423 c2 -10 10 -18 18 -18 22 0 18 29 -3 33 -14 3 -18 -1 -15
-15z"/>
<path d="M12336 1424 c-34 -34 -9 -113 32 -100 29 9 39 59 18 91 -19 29 -29
31 -50 9z"/>
<path d="M12462 1423 c2 -10 10 -18 18 -18 8 0 16 8 18 18 2 12 -3 17 -18 17
-15 0 -20 -5 -18 -17z"/>
<path d="M14532 1423 c5 -26 38 -29 38 -4 0 15 -6 21 -21 21 -14 0 -19 -5 -17
-17z"/>
<path d="M5884 1096 c-11 -28 4 -48 33 -44 22 2 28 8 28 28 0 20 -6 26 -28 28
-18 2 -29 -2 -33 -12z"/>
<path d="M8010 1095 c-10 -12 -10 -18 0 -30 25 -30 80 -5 66 30 -7 19 -50 19
-66 0z"/>
<path d="M10134 1096 c-11 -28 4 -48 33 -44 22 2 28 8 28 28 0 20 -6 26 -28
28 -18 2 -29 -2 -33 -12z"/>
<path d="M14384 1155 c-9 -22 9 -37 37 -33 16 2 24 10 24 23 0 26 -52 35 -61
10z"/>
<path d="M14380 1095 c-16 -20 3 -45 35 -45 12 0 28 7 35 15 16 20 -3 45 -35
45 -12 0 -28 -7 -35 -15z"/>
<path d="M1614 769 c-3 -6 -2 -15 4 -21 15 -15 46 -5 50 15 3 12 -3 17 -22 17
-14 0 -28 -5 -32 -11z"/>
<path d="M2087 813 c-16 -15 -5 -23 33 -23 31 0 38 3 34 15 -6 15 -55 21 -67
8z"/>
<path d="M4114 769 c-3 -6 -2 -15 4 -21 15 -15 46 -5 50 15 3 12 -3 17 -22 17
-14 0 -28 -5 -32 -11z"/>
<path d="M5935 770 c-9 -14 3 -30 24 -30 18 0 41 18 41 32 0 12 -58 10 -65 -2z"/>
<path d="M10185 770 c-9 -14 3 -30 24 -30 18 0 41 18 41 32 0 12 -58 10 -65
-2z"/>
<path d="M14694 769 c-3 -6 -2 -15 4 -21 15 -15 46 -5 50 15 3 12 -3 17 -22
17 -14 0 -28 -5 -32 -11z"/>
</g>
</svg>
